<?xml version="1.0" standalone="no"?>
<!DOCTYPE svg PUBLIC "-//W3C//DTD SVG 1.1//EN" "http://www.w3.org/Graphics/SVG/1.1/DTD/svg11.dtd" >
<svg xmlns="http://www.w3.org/2000/svg" xmlns:xlink="http://www.w3.org/1999/xlink" version="1.1">
<metadata></metadata>
<defs>
<font id="dxxregular" horiz-adv-x="1925" >
<font-face units-per-em="2048" ascent="1638" descent="-410" />
<missing-glyph horiz-adv-x="500" />
<glyph horiz-adv-x="0" />
<glyph horiz-adv-x="682" />
<glyph horiz-adv-x="614" />
<glyph horiz-adv-x="614" />
<glyph horiz-adv-x="614" />
<glyph horiz-adv-x="614" />
<glyph horiz-adv-x="614" />
<glyph horiz-adv-x="614" />
<glyph horiz-adv-x="614" />
<glyph horiz-adv-x="614" />
<glyph horiz-adv-x="614" />
<glyph horiz-adv-x="614" />
<glyph horiz-adv-x="614" />
<glyph horiz-adv-x="614" />
<glyph horiz-adv-x="614" />
<glyph horiz-adv-x="614" />
<glyph horiz-adv-x="614" />
<glyph horiz-adv-x="614" />
<glyph horiz-adv-x="614" />
<glyph horiz-adv-x="614" />
<glyph horiz-adv-x="614" />
<glyph unicode="&#xd;" horiz-adv-x="614" />
<glyph horiz-adv-x="614" />
<glyph horiz-adv-x="614" />
<glyph unicode="&#xa;" horiz-adv-x="614" />
<glyph unicode="&#x9;" horiz-adv-x="614" />
<glyph horiz-adv-x="614" />
<glyph horiz-adv-x="614" />
<glyph horiz-adv-x="614" />
<glyph horiz-adv-x="614" />
<glyph horiz-adv-x="614" />
<glyph horiz-adv-x="614" />
<glyph horiz-adv-x="614" />
<glyph horiz-adv-x="614" />
<glyph unicode="!" horiz-adv-x="819" d="M307 -170q0 43 30 74t73 35t72.5 -25t29.5 -72t-29.5 -73.5t-72.5 -34.5t-73 24.5t-30 71.5zM332 1399q-2 45 13 58t69 18q53 4 70.5 -7.5t15.5 -56.5l-49 -1190q0 -14 -12.5 -21t-27 -8.5t-26.5 5t-12 20.5z" />
<glyph unicode="&#x22;" horiz-adv-x="778" d="M164 1468q-2 29 9 50.5t63 25.5q51 4 62 -16t9 -49l-35 -543q-2 -20 -12 -30.5t-23.5 -11.5t-23.5 8t-12 30zM471 1491q-2 29 9.5 49.5t62.5 24.5t62 -15.5t9 -48.5l-34 -543q-2 -20 -12.5 -31.5t-24 -12.5t-23.5 8.5t-12 29.5z" />
<glyph unicode="#" horiz-adv-x="1204" d="M102 368.5q0 18.5 10.5 35t28.5 16.5l197 14l90 359l-178 -13q-18 -2 -28.5 13.5t-10.5 35t10 36t29 18.5l203 14l100 406q4 16 21.5 23t36 5t32.5 -12t10 -25l-98 -391l256 19l100 407q4 16 21.5 22.5t36 4.5t32 -12.5t9.5 -24.5l-99 -389l152 10q18 0 28.5 -15.5 t10.5 -35t-10.5 -35.5t-28.5 -16l-176 -13l-90 -358l157 10q18 2 28.5 -13t10.5 -33.5t-10 -35t-29 -18.5l-184 -12l-111 -447q-4 -18 -21 -26.5t-35.5 -7.5t-31 10.5t-8.5 27.5l109 434l-258 -16l-111 -446q-4 -18 -22.5 -27.5t-37 -8.5t-30.5 11t-8 27l108 436l-172 -13 q-18 0 -28.5 15.5t-10.5 34zM438 440l256 19l90 358l-256 -18z" />
<glyph unicode="$" horiz-adv-x="1040" d="M102 236q-2 16 6.5 27t20.5 15.5t25.5 -2t19.5 -26.5q43 -129 112.5 -184.5t174.5 -51.5q10 0 18 1t19 1v568l-103 49q-98 45 -168.5 123t-70.5 176q0 68 25.5 125t71.5 101t108.5 75t136.5 43v205q0 12 12 20t26.5 9t26.5 -5t12 -18v-203q125 6 228 -27q10 -4 28 -4 q16 -4 19.5 -16t5.5 -23q2 -6 5 -26.5t6 -45t7.5 -52t6.5 -48.5q2 -16 -7.5 -28.5t-21.5 -17.5t-24.5 1.5t-20.5 28.5q-10 25 -28.5 57.5t-45.5 57.5q-31 31 -67.5 46t-90.5 15v-530l31 -15q66 -31 126.5 -66.5t106.5 -78.5t72.5 -91.5t26.5 -101.5q0 -154 -98.5 -246.5 t-264.5 -121.5v-211q0 -14 -12 -21.5t-26.5 -9.5t-26.5 4t-12 21v207q-23 -2 -45.5 -3t-46.5 -1q-68 0 -124.5 13t-113.5 40q-18 8 -23 20q-10 23 -18 55.5t-12 66.5t-7.5 62.5t-5.5 41.5zM281 958q0 -82 55 -142t123 -91l39 -18v489q-90 -20 -153.5 -82.5t-63.5 -155.5z M575 29q51 12 96.5 32.5t80 51t55 72.5t20.5 96q0 76 -71.5 145.5t-180.5 122.5v-520z" />
<glyph unicode="%" horiz-adv-x="1640" d="M102 829q0 72 17.5 148t51.5 139.5t86 106.5t122 47t122 -28t87 -88t52 -131t17 -155t-17 -156.5t-51 -136t-87 -98.5t-123 -43t-121 31t-86 92t-52.5 129t-17.5 143zM217 838q0 -47 7 -106.5t24.5 -112t49.5 -86t81 -29.5q51 4 83 43t49 93t23.5 114.5t6.5 105.5 t-6.5 106.5t-23.5 115t-49 89t-83 31.5q-49 -4 -81 -44t-49.5 -95t-24.5 -116.5t-7 -108.5zM389 -68l797 1409q8 14 23.5 15.5t29.5 -7t22.5 -21.5t2.5 -25l-797 -1412q-8 -16 -24.5 -16t-31 8t-22.5 22.5t0 26.5zM983 348q0 72 17.5 147.5t51 138t86 105.5t122.5 47 t122 -27.5t86.5 -87t52 -130t17.5 -154.5t-17.5 -156.5t-51 -137t-87 -99.5t-122.5 -43q-70 -4 -121.5 30.5t-86 93t-52 131.5t-17.5 142zM1098 354q0 -47 7 -106.5t24.5 -110.5t49 -86t81.5 -31q51 4 82.5 43t49 94.5t23.5 116t6 105.5t-6 105.5t-23.5 112.5t-49 87 t-82.5 31q-49 -4 -81 -42t-49.5 -93.5t-24.5 -117t-7 -108.5z" />
<glyph unicode="&#x26;" horiz-adv-x="1669" d="M127 188q0 76 37 143.5t95 126t130 111t141 101.5q-18 18 -52 53t-66.5 77t-57 87t-24.5 86q0 61 22.5 116.5t63.5 97.5t98 67.5t129 31.5q141 8 224 -57.5t83 -171.5q0 -66 -26.5 -123t-65.5 -104.5t-86 -86t-86 -67.5l348 -361q18 27 49 72t63 93t57.5 90t35.5 63 q10 23 -17.5 38t-123.5 13q-16 0 -23.5 9t-7.5 21.5t7 23t24 12.5l383 26q16 0 23 -8t7 -20.5t-8 -22.5t-22 -12q-35 -6 -57.5 -14.5t-42 -22.5t-38 -38t-43.5 -60l-210 -316l106 -108q37 -37 68.5 -59.5t65.5 -35t69 -17.5t78 -7q14 0 20 -9.5t5 -20.5t-8 -20.5t-19 -9.5 l-330 -22q-12 0 -19.5 7t-8.5 16.5t4 18.5t18 13q31 10 10 31l-131 137q-45 -55 -99.5 -105.5t-118 -89t-135 -62t-149.5 -30.5q-104 -8 -178 15.5t-121 66.5t-68.5 100.5t-21.5 116.5zM240 229q0 -66 23.5 -116t65.5 -81.5t97 -46t121 -10.5q53 4 110.5 26t112.5 55.5 t105.5 77.5t87.5 93l-375 385q-47 -35 -106.5 -76.5t-114 -90t-91 -103.5t-36.5 -113zM430 1012q0 -31 22.5 -70t55.5 -78t66.5 -72.5l58.5 -58.5q37 27 73.5 60.5t66.5 71.5t49.5 81t19.5 90q0 84 -53.5 130t-153.5 40q-96 -8 -150.5 -65.5t-54.5 -128.5z" />
<glyph unicode="'" horiz-adv-x="471" d="M164 1481q-2 29 9 49t63 24q51 4 62 -15t9 -50l-35 -543q-2 -20 -12 -30.5t-23.5 -11.5t-23.5 8.5t-12 29.5z" />
<glyph unicode="(" horiz-adv-x="698" d="M164 586q0 195 45 355.5t113.5 286.5t149.5 217t153 148q14 10 26.5 9.5t19.5 -8t7 -19.5t-12 -23q-78 -70 -147.5 -172t-123 -226t-85 -267.5t-31.5 -292.5q0 -152 31.5 -289t85 -254t123 -210t147.5 -152q12 -8 12 -19.5t-7 -20.5t-19.5 -12.5t-26.5 7.5 q-72 45 -153 124.5t-149.5 196.5t-113.5 271.5t-45 349.5z" />
<glyph unicode=")" horiz-adv-x="698" d="M20 -366.5q0 12.5 13 22.5q76 70 146.5 172t123.5 226t85 266.5t32 293.5q0 150 -32 288t-85 255t-123.5 210.5t-146.5 152.5q-12 8 -12.5 19t7 20.5t19.5 11.5t27 -6q72 -47 152.5 -126t149 -196t114 -271.5t45.5 -348.5q0 -195 -45.5 -356t-114 -286.5t-149.5 -217 t-152 -148.5q-14 -10 -26.5 -9t-20 8t-7.5 19.5z" />
<glyph unicode="*" horiz-adv-x="821" d="M137.5 1087q1.5 27 20.5 43q20 20 57 29.5t70.5 16t59.5 13.5t26 23t-20.5 21.5t-50.5 7.5t-64.5 4t-61.5 15q-29 10 -35 37.5t6 50.5q16 29 39 37t45 -1q25 -10 45.5 -32.5t39 -46t35 -41t30.5 -17.5q10 0 14 7.5t4 13.5q0 14 -16 47q-10 33 -25.5 70.5t-15.5 68.5 t19.5 48.5t52.5 19.5q31 2 50 -13.5t19 -46.5t-14 -69.5t-27 -73.5q-16 -33 -16 -51q0 -16 14 -17q16 0 32.5 20.5t35 47.5t38 52.5t44.5 37.5t51.5 5t36.5 -30q16 -33 6 -57t-39 -39q-20 -10 -52 -16t-75 -15q-23 -4 -45 -14t-22 -26q0 -14 19 -19.5t49 -6.5t62.5 -3 t57.5 -10q33 -10 43 -38t-8 -61q-20 -33 -48 -36t-55 14q-20 14 -37.5 36.5t-34 42t-30.5 34t-29 14.5q-10 0 -12 -6.5t-2 -10.5q0 -8 4 -20t12 -35q12 -27 26.5 -64.5t14.5 -68.5q0 -29 -19.5 -50.5t-49.5 -23.5q-33 -2 -52.5 17.5t-19.5 48.5q0 31 15.5 69.5t25.5 67.5 q16 49 16 59q0 12 -18 13q-16 0 -31.5 -19.5t-33 -44t-37 -49.5t-41.5 -39q-51 -29 -86 14q-14 18 -12.5 45z" />
<glyph unicode="+" horiz-adv-x="1433" d="M184 526v103l482 33v522l102 8v-522l481 32v-102l-481 -33v-542l-102 -9v543z" />
<glyph unicode="," horiz-adv-x="573" d="M170 -111q0 43 29.5 75t72.5 36q57 4 94 -44t37 -126q0 -92 -56 -169t-140 -118q-18 -8 -28.5 9.5t7.5 31.5q55 41 92 91.5t37 80.5q0 41 -43 39q-43 -4 -72.5 23.5t-29.5 70.5z" />
<glyph unicode="-" horiz-adv-x="1433" d="M184 526v103l1065 73v-102z" />
<glyph unicode="." horiz-adv-x="573" d="M184 -170q0 43 30 74t73 35t72.5 -25t29.5 -72t-29.5 -73.5t-72.5 -34.5t-73 24.5t-30 71.5z" />
<glyph unicode="/" horiz-adv-x="829" d="M84 -266l561 1777q8 27 27.5 34t37 2t28.5 -21.5t5 -36.5l-561 -1778q-6 -23 -25.5 -32t-38 -6t-30.5 18.5t-4 42.5z" />
<glyph unicode="0" horiz-adv-x="1044" d="M80 569q0 129 28.5 256t85 229.5t139.5 168t189 73.5q115 8 198 -50t137 -154.5t81 -218t27 -242.5q0 -137 -29 -264t-86 -227.5t-140 -163t-190 -70.5q-111 -8 -193.5 47t-138 150.5t-82 217t-26.5 248.5zM207 578q0 -76 11 -179.5t45 -198t95.5 -156.5t163.5 -56 q94 6 155.5 71.5t96.5 158.5t48.5 202t15.5 203q0 88 -14.5 194.5t-51.5 196.5t-98.5 148.5t-153.5 51.5q-68 -4 -118 -39.5t-84.5 -91t-56 -123t-34 -137t-16.5 -134t-4 -111.5z" />
<glyph unicode="1" horiz-adv-x="1044" d="M243 1105q-1 11 7 22.5t20 13.5q66 12 139.5 50t143.5 95q18 16 31.5 8t13.5 -26v-1071q0 -57 6 -91t23.5 -51.5t51.5 -23.5t89 -8q16 0 24.5 -10.5t8.5 -23t-8.5 -22.5t-24.5 -12l-451 -31q-16 -2 -25 7.5t-9 21.5t9 23.5t25 15.5q57 10 91 20.5t51.5 29.5t22.5 54t5 92 v789q0 39 -4 61.5t-16 32.5t-32.5 12t-51.5 0l-100 -6q-20 -2 -29.5 7.5t-10.5 20.5z" />
<glyph unicode="2" horiz-adv-x="1044" d="M100 -31q125 131 234.5 257t218.5 266q102 133 155.5 235t53.5 186q0 80 -23.5 134.5t-63.5 87t-93.5 45t-112.5 8.5q-78 -4 -147.5 -58.5t-122.5 -154.5q-8 -16 -24.5 -22.5t-31 -3.5t-20.5 16.5t6 35.5q37 74 84 126.5t97 86t98.5 50t89.5 20.5q72 6 141.5 -10.5 t124.5 -55t89 -102t34 -155.5q0 -63 -18.5 -126t-48 -121.5t-68.5 -113.5t-80 -104l-332 -398q-35 -41 -26.5 -52t63.5 -7l287 20q41 4 74.5 10.5t66.5 26.5q16 10 31.5 30.5t28 43.5t21.5 45.5t15 38.5q6 20 18.5 26.5t23.5 3.5t19.5 -14.5t4.5 -27.5l-72 -250 q-4 -8 -11 -18.5t-26 -12.5l-735 -51q-78 -2 -23 59z" />
<glyph unicode="3" horiz-adv-x="1044" d="M109 -152q0 29 21.5 49.5t45.5 22.5q29 4 51.5 -12.5t38.5 -42.5q18 -29 44 -39t71 -6q59 4 135 48t142.5 112.5t111.5 156.5t45 180q0 137 -64.5 205t-218.5 58q-70 -4 -135 -39t-131 -76q-16 -10 -31.5 -6t-23.5 15t-4 27.5t24 28.5q66 37 127 74q53 31 105.5 66 t85.5 59q72 53 122 118.5t50 160.5q0 59 -21.5 98t-55.5 61.5t-76 29.5t-83 5q-39 -4 -74.5 -21.5t-67.5 -43t-59.5 -59.5t-47.5 -66q-10 -14 -23.5 -18.5t-25 -0.5t-15.5 17.5t6 33.5q59 111 153.5 173.5t188.5 68.5q57 4 113.5 -6t101.5 -38t73 -74t28 -113 q0 -117 -47.5 -190.5t-145.5 -145.5q-18 -10 -24.5 -21.5t24.5 -13.5q131 -4 212 -81.5t81 -235.5q0 -123 -57.5 -235t-147.5 -198t-203.5 -140t-226.5 -62q-31 -2 -65.5 3t-62.5 18.5t-46 37t-18 57.5z" />
<glyph unicode="4" horiz-adv-x="1044" d="M60.5 313.5q-5.5 14.5 25.5 63.5l664 1020q10 16 21 25.5t28 9.5l20 2q18 2 25.5 -3.5t9.5 -11.5t-2 -14l-6 -12l-613 -940q-29 -43 -25.5 -52.5t56.5 -5.5l375 27q41 4 47 16.5t6 42.5v426q0 14 5 26.5t20 18.5l51 19q18 8 26.5 -6.5t8.5 -32.5v-443q0 -31 6 -43t47 -10 l102 8q23 0 27 -10q4 -8 5 -24.5t-5 -32.5q-6 -14 -27 -15l-102 -8q-41 -2 -47 -15t-6 -42v-86q0 -59 4 -94t16.5 -52.5t36 -22.5t62.5 -7q16 -2 24 -12.5t8 -22.5t-8 -22.5t-24 -10.5l-349 -24q-16 -2 -25 7t-9 21.5t9 23.5t25 15q39 8 62.5 16.5t36 28t16.5 54t4 94.5v86 q0 29 -6 42t-47 9l-518 -37q-55 -4 -60.5 10.5z" />
<glyph unicode="5" horiz-adv-x="1044" d="M131 -207q0 12 7 22.5t22 14.5q125 20 241.5 72.5t204.5 127t141.5 169t53.5 200.5q0 102 -51.5 160.5t-136.5 88.5t-196.5 38t-232.5 8q-16 0 -22 8.5t2 38.5l115 437q6 25 14 39t37 18l530 104q27 2 17 -22l-33 -78q-6 -14 -23 -18l-418 -80q-37 -8 -49 -21.5 t-20 -44.5l-62 -235q-6 -23 2.5 -28t30.5 -5q145 -2 259 -21.5t192 -62.5t117.5 -114t39.5 -173q0 -127 -62.5 -244.5t-165.5 -209t-237.5 -149.5t-277.5 -69q-18 -2 -28.5 7.5t-10.5 21.5z" />
<glyph unicode="6" horiz-adv-x="1044" d="M92 461q0 162 61.5 314.5t166 281.5t246 230.5t300.5 164.5q18 6 31.5 1t18 -16.5t-3 -24.5t-27.5 -23q-158 -74 -281 -175.5t-209 -220.5t-131 -252t-45 -270q0 -88 15.5 -176t52.5 -155.5t101.5 -107.5t162.5 -34q129 10 206 106.5t77 245.5q0 68 -15.5 125t-44.5 97 t-70.5 61.5t-95.5 17.5q-72 -4 -119 -24.5t-69 -38.5q-12 -10 -23.5 -9t-17.5 9t-6 19t12 24q18 18 46 36.5t60.5 34t67.5 26.5t70 13q82 6 142 -18.5t100 -70.5t60.5 -112.5t20.5 -144.5q0 -92 -28.5 -177t-82 -149.5t-130 -105.5t-172.5 -47q-121 -8 -205 35t-138.5 121 t-79 179t-24.5 210z" />
<glyph unicode="7" horiz-adv-x="1044" d="M76 1047l47 182q2 6 7 10t22 4l770 55q68 4 39 -59l-642 -1393q-6 -20 -18 -22l-70 -4q-10 0 -8 8t6 20l568 1250q16 37 15 59.5t-50 18.5l-467 -33q-45 -4 -73.5 -14.5t-46 -26t-28 -34.5t-18.5 -38q-6 -12 -16.5 -17t-19.5 -3t-15 11t-2 26z" />
<glyph unicode="8" horiz-adv-x="1044" d="M86 225q0 195 309 383q-47 20 -95 48t-87 65t-63.5 83t-24.5 103q0 86 32.5 154.5t90 119t135.5 79t166 34.5q70 4 138.5 -10t122.5 -51t88 -96.5t34 -141.5q0 -53 -21.5 -98t-61.5 -86t-96.5 -80t-123.5 -78q166 -47 247.5 -143.5t81.5 -202.5q0 -94 -34.5 -165.5 t-95 -123t-143.5 -80t-181 -34.5q-78 -6 -153 10t-133 55t-95 102.5t-37 153.5zM197 231q0 -55 24.5 -102t68.5 -80t103.5 -49t126.5 -12q59 4 118.5 21.5t107 51t76 81.5t28.5 114q0 41 -14.5 86t-54.5 88t-111.5 82t-188.5 68q-141 -86 -212.5 -167t-71.5 -182zM236 954 q0 -96 69.5 -161.5t229.5 -110.5q45 25 97 57.5t96 70.5t72.5 81t28.5 88q0 66 -23.5 112t-63.5 73.5t-94 38.5t-116 7q-53 -4 -106 -21.5t-95 -49t-68.5 -77.5t-26.5 -108z" />
<glyph unicode="9" horiz-adv-x="1044" d="M92 809q0 92 29 177t82 149.5t130 105.5t173 47q119 8 204 -35t139 -120.5t78.5 -179t24.5 -210.5q0 -164 -61.5 -315.5t-165.5 -280.5t-245.5 -230t-301.5 -165q-18 -6 -31.5 -1t-17.5 16.5t3 24.5t28 24q156 74 279.5 175t209.5 220t131 252t45 270q0 88 -15 176 t-52 156t-101.5 107.5t-162.5 33.5q-129 -10 -206 -106t-77 -246q0 -68 15.5 -125t44 -97t70.5 -61.5t95 -17.5q72 4 119 24.5t70 38.5q12 10 23 9.5t17.5 -9t6.5 -19.5t-13 -24q-18 -18 -45.5 -36.5t-60.5 -34t-68.5 -26.5t-68.5 -13q-82 -6 -142.5 18.5t-100.5 70.5 t-60.5 112.5t-20.5 144.5z" />
<glyph unicode=":" horiz-adv-x="778" d="M287 158q0 43 29.5 73.5t72.5 34.5t73 -24.5t30 -71.5t-30 -73.5t-73 -35.5q-43 -4 -72.5 25t-29.5 72zM287 1038q0 43 29.5 74t72.5 35t73 -24.5t30 -71.5t-30 -74t-73 -35t-72.5 24.5t-29.5 71.5z" />
<glyph unicode=";" horiz-adv-x="778" d="M272 176q0 43 30 75t73 36q57 4 94 -44t37 -126q0 -92 -56.5 -169t-140.5 -118q-18 -8 -28.5 9.5t8.5 31.5q55 41 92 91t37 81q0 41 -43 39q-43 -4 -73 23.5t-30 70.5zM287 1038q0 43 29.5 74t72.5 35t73 -24.5t30 -71.5t-30 -74t-73 -35t-72.5 24.5t-29.5 71.5z" />
<glyph unicode="&#x3c;" horiz-adv-x="915" d="M164 575l627 977q12 20 33.5 22.5t40 -5.5t26.5 -25.5t-4 -36.5l-594 -923l594 -840q12 -18 4 -36.5t-26.5 -31t-40 -12.5t-33.5 19z" />
<glyph unicode="=" horiz-adv-x="1433" d="M246 305v103l942 65v-102zM246 735v103l942 65v-102z" />
<glyph unicode="&#x3e;" horiz-adv-x="915" d="M22.5 -343q-8.5 17 6.5 38l594 921l-594 842q-12 16 -4 34.5t26.5 30t40 11.5t33.5 -18l627 -891l-627 -979q-12 -20 -34.5 -22.5t-41 7t-27 26.5z" />
<glyph unicode="?" horiz-adv-x="1054" d="M102 1049q-4 94 30 170.5t94.5 133t141.5 89.5t169 39q109 8 187.5 -25t128.5 -89t74.5 -128.5t24.5 -142.5q0 -106 -34.5 -185.5t-87 -144t-112 -121.5t-109.5 -120.5t-81.5 -141.5t-27.5 -182q2 -20 -9.5 -32.5t-26.5 -13.5t-28.5 8t-15.5 30q-12 106 13.5 188 t70.5 150.5t100 127t104.5 120t82 130t32.5 154.5q0 106 -37.5 180t-119.5 113q-53 25 -117 27.5t-123 -14.5t-109.5 -54t-76.5 -88q-20 -39 -16.5 -70t24.5 -35q37 -4 55.5 -31.5t17 -60.5t-26 -61.5t-73.5 -30.5q-53 -4 -84 29.5t-35 81.5zM369 -174q0 43 29.5 73.5 t72.5 34.5t72.5 -23.5t29.5 -70.5t-29.5 -74.5t-72.5 -35.5t-72.5 24.5t-29.5 71.5z" />
<glyph unicode="@" horiz-adv-x="1564" d="M164 500q0 160 55 298t150.5 242.5t220.5 168t264 73.5q133 10 235.5 -29t171 -108.5t104.5 -160.5t36 -187t-32 -193.5t-89 -176.5t-136 -131t-171 -58q-14 -2 -38 -3.5t-47.5 1t-40 9.5t-16.5 25q0 16 8.5 47t18.5 60q-25 -31 -54.5 -59.5t-63 -51t-70.5 -38t-74 -17.5 q-47 -4 -81 14.5t-54.5 52t-29.5 77.5t-9 94q0 88 42 184t105.5 178t138 137.5t138.5 59.5q53 4 98 -13.5t62 -79.5l20 76q6 20 24.5 29.5t39 9.5t35 -9t10.5 -22l-144 -481q-6 -16 -13 -41.5t-13.5 -52.5t-10.5 -48.5t-4 -29.5q0 -29 11.5 -35t29.5 -4q61 4 120.5 50 t106 116t75 154t28.5 164q0 86 -34 164.5t-95.5 136t-147.5 89t-190 23.5q-135 -10 -242.5 -74.5t-182.5 -163t-116 -219t-41 -239.5q0 -78 29 -164t94.5 -156.5t169 -112.5t254.5 -32q59 4 123 22.5t124 52.5t114.5 82t97.5 113q8 12 20.5 13.5t21.5 -5t14 -18.5t-3 -24 q-84 -145 -228.5 -223.5t-332.5 -90.5q-109 -8 -217.5 21.5t-194.5 95t-140 170t-54 248.5zM530 403q0 -39 14.5 -62.5t39 -33.5t54.5 -6t60 21q29 16 59.5 42.5t57.5 58.5t47.5 66.5t30.5 65.5l70 229q8 27 5 53.5t-14.5 47t-30 33t-42.5 10.5q-55 -4 -117 -50.5t-114 -120 t-86 -165.5t-34 -189z" />
<glyph unicode="A" horiz-adv-x="1363" d="M10 -71.5q2 14.5 12.5 26.5t30.5 14q82 6 114 34t46 65l438 1204q10 29 28.5 31t29.5 -27l446 -1120q18 -47 53 -73t107 -26q18 0 27.5 -11t10.5 -24.5t-7.5 -24.5t-28.5 -13l-383 -27q-16 -2 -25.5 8t-9.5 22.5t9.5 24t29.5 15.5q12 2 33.5 4t42 7t34 15t11.5 27 q-2 18 -13.5 51t-25.5 70t-29.5 73.5t-25.5 61.5q-6 10 -10.5 16t-14.5 10t-23.5 4.5t-21.5 -1.5l-438 -31q-45 -4 -55.5 -14.5t-20.5 -38.5q-8 -23 -20.5 -57t-24.5 -68.5t-21.5 -68.5t-11.5 -56q-4 -35 24.5 -38t104.5 -3q18 0 27.5 -10.5t9.5 -22.5t-8 -23.5t-27 -11.5 l-393 -28q-16 0 -24.5 10t-6.5 24.5zM439 422q3 -8 44 -4l373 26q43 4 49 16.5t-8 47.5l-217 555q-4 8 -9 7t-9 -9l-216 -600q-10 -31 -7 -39z" />
<glyph unicode="B" horiz-adv-x="1228" d="M61 -65.5q0 12.5 9.5 22.5t25.5 14q51 10 82 20.5t45.5 30t18.5 54.5t4 92v831q0 59 -4 93t-19.5 50.5t-45.5 21.5t-81 5q-16 0 -25.5 10.5t-9.5 22.5t8.5 22.5t26.5 10.5l357 27q100 7 199 8q12 0 24 -1q110 -1 196 -40q147 -70 148 -240q0 -127 -70.5 -203.5 t-187.5 -111.5q160 -16 250 -96.5t90 -225.5q0 -98 -37 -172t-95.5 -124t-133 -77.5t-148.5 -31.5l-592 -43q-16 0 -25.5 9t-9.5 21.5zM356 215q0 -59 7.5 -101t27.5 -65q23 -25 68 -29q22 -2 50.5 -2t61.5 2l64 5q80 4 145.5 24.5t118.5 77.5q39 41 59 98q19 52 19 115v12 q-2 82 -39 139.5t-123 92.5q-59 26 -125 28q-26 1 -52 0q-41 0 -81 -2l-96 -6q-37 -4 -58.5 -8t-32 -11t-12.5 -16.5t-2 -23.5v-330zM356 733q0 -41 14 -47q9 -4 36 -4q18 0 43 2l120 10q35 2 91.5 8.5t108.5 33t88 78.5q32 47 32 129v18q-4 129 -94 182q-76 45 -197 45 q-23 0 -47 -2l-145 -10q-29 -2 -39.5 -14.5t-10.5 -35.5v-393z" />
<glyph unicode="C" horiz-adv-x="1316" d="M102 575q0 147 51.5 276.5t141.5 228t212 158.5t265 71q22 1 49 1h28q44 -1 90 -5.5t90 -11.5t79 -17q31 -8 41 -19.5t12 -23.5l17 -182q2 -16 -6.5 -27.5t-19.5 -15.5t-22.5 1t-17.5 21q-16 45 -40.5 83t-66.5 63q-43 24 -103 36q-40 8 -91 7q-27 0 -57 -2 q-133 -10 -230.5 -66.5t-162 -143.5t-96.5 -197t-32 -224q0 -109 36 -214.5t103.5 -186.5t163.5 -127q82 -39 183 -39q17 0 35 1q86 6 147.5 36t107.5 73t79.5 95t62.5 104q12 18 24.5 23t22.5 0t14 -19.5t0 -32.5q-10 -53 -25.5 -98t-27.5 -80q-16 -41 -28.5 -53.5 t-32.5 -24.5q-88 -53 -179.5 -81t-191.5 -36q-25 -2 -49 -2q-113 0 -208 39q-116 47 -196.5 136t-126 212t-45.5 264z" />
<glyph unicode="D" horiz-adv-x="1406" d="M61 -73.5q0 12.5 9.5 23.5t25.5 15q51 10 82 20.5t45.5 30t18.5 53t4 91.5v831q0 59 -4 93t-19.5 51.5t-45.5 22.5t-81 5q-16 0 -25.5 9.5t-9.5 21.5t8.5 22.5t26.5 12.5l477 33q54 4 103 4q53 0 101 -4q93 -8 171 -37q92 -35 160 -92.5t111 -131t64.5 -160.5t21.5 -179 q0 -94 -22.5 -184.5t-64.5 -170.5t-102.5 -147.5t-138.5 -116.5q-37 -23 -81 -42t-91 -32.5t-95 -22.5t-92 -12l-522 -36q-16 -2 -25.5 7t-9.5 21.5zM356 221q0 -131 35 -174q12 -12 36 -21q25 -8 55 -11q23 -2 47 -2h17q34 1 64 3h29q131 10 231.5 64.5t168 141.5 t102.5 198.5t35 234.5q0 119 -37 219.5t-111 172t-182 108.5q-85 29 -193 29q-29 0 -59 -2l-188 -13q-29 -4 -39.5 -14t-10.5 -37v-897z" />
<glyph unicode="E" horiz-adv-x="1171" d="M61 -65.5q0 12.5 9.5 23.5t25.5 15q51 10 82 20.5t45.5 30t18.5 53.5t4 91v831q0 59 -4 93t-19.5 51.5t-45.5 22.5t-81 5q-16 0 -25.5 9.5t-9.5 21.5t8.5 22.5t26.5 12.5l867 61q25 2 30.5 -6t7.5 -22l25 -252q2 -14 -7 -23.5t-20.5 -11.5t-23.5 3t-17 22q-4 18 -11 36.5 t-13 34.5q-23 47 -54.5 71t-84.5 36q-42 10 -86 10q-11 0 -23 -1q-56 -3 -111 -7l-169 -10q-29 -4 -39.5 -14.5t-10.5 -37.5v-391q0 -45 14 -58q11 -10 52 -10q12 0 27 1l143 10q16 2 49 5t61 11q23 6 35.5 18.5t19.5 30t11 40t10 46.5q2 14 13.5 23.5t23.5 11.5t22.5 -5 t10.5 -23v-375q0 -16 -10.5 -24.5t-22.5 -9.5t-23.5 5t-13.5 23q-4 25 -8 49t-12 43.5t-20.5 33t-35.5 15.5q-29 2 -63.5 2t-63.5 -4l-114 -8q-37 -2 -58.5 -6.5t-32 -11.5t-12.5 -17t-2 -25v-297q0 -131 35 -174q23 -27 85 -32q31 -2 62.5 -2.5t65.5 2.5l86 6q31 4 79 9 t81 25q35 23 71.5 71t82.5 126q8 14 20 18.5t23.5 1t17.5 -14.5t2 -25q-20 -84 -38.5 -142.5t-43.5 -117.5q-4 -10 -9 -11.5t-20 -3.5l-860 -59q-16 -2 -25.5 7t-9.5 21.5z" />
<glyph unicode="F" horiz-adv-x="1089" d="M61 -61.5q0 12.5 9.5 22.5t25.5 14q51 10 82 20.5t45.5 30t18.5 54.5t4 92v832q0 59 -4 92.5t-19.5 50t-45.5 22t-81 5.5q-16 0 -25.5 10t-9.5 22.5t8.5 22.5t26.5 10l826 59q25 2 30.5 -6t8.5 -22l24 -252q2 -14 -7 -23.5t-20.5 -11.5t-23.5 3t-16 22q-4 18 -11.5 36.5 t-13.5 34.5q-23 47 -54.5 71t-84.5 36q-42 10 -86 10q-10 0 -22 -1q-56 -3 -111 -7l-129 -8q-29 -2 -39.5 -13.5t-10.5 -38.5v-391q0 -45 14 -58q11 -10 52 -10q12 0 27 1l143 10q16 2 49 6t61 10q23 6 35.5 18.5t19.5 30t11 40t10 49.5q2 14 13.5 22t23.5 10t22.5 -5 t10.5 -23v-375q0 -16 -10.5 -24.5t-22.5 -9.5t-23.5 6t-13.5 24q-4 25 -8 48t-12 42.5t-20.5 33t-35.5 15.5q-29 4 -63.5 3t-63.5 -3l-114 -8q-37 -4 -58.5 -8t-32 -11.5t-12.5 -17.5t-2 -25v-350q0 -57 4.5 -91t18.5 -51.5t44 -23.5t83 -8q16 0 24.5 -10t8.5 -22.5 t-8.5 -22.5t-24.5 -12l-410 -29q-16 0 -25.5 9t-9.5 21.5z" />
<glyph unicode="G" horiz-adv-x="1431" d="M82 569q0 147 51 276.5t141.5 227.5t212 158.5t265.5 71.5q39 2 86 2t94 -4.5t93 -11.5t81 -17q31 -8 41 -19.5t12 -23.5l17 -182q2 -16 -6.5 -27.5t-19.5 -16t-22.5 1t-17.5 21.5q-16 45 -43 83t-72 62.5t-109 36.5q-41 7 -90 7q-30 0 -63 -3q-133 -10 -230 -66 t-162 -143.5t-96.5 -197t-31.5 -223.5q0 -109 36 -214.5t103.5 -186.5t163.5 -127q82 -39 182 -39q17 0 35 1q45 2 94.5 11.5t96.5 25t86 37t63 49.5q27 31 31 71t4 81v59q0 51 -3 84t-14.5 50.5t-33 24.5t-56.5 7q-14 0 -51 -1t-53 -3q-20 -2 -31.5 10.5t-12.5 27.5 t10 28.5t34 15.5l412 29q20 2 30.5 -10.5t10.5 -28t-10.5 -28.5t-30.5 -15q-61 -4 -75.5 -47t-14.5 -109v-190q0 -39 -5.5 -62.5t-37.5 -52.5q-94 -82 -217 -115t-252 -43q-25 -2 -49 -2q-112 0 -208 39q-116 47 -197 135t-126 211t-45 264z" />
<glyph unicode="H" horiz-adv-x="1445" d="M61 -75.5q0 12.5 9.5 23.5t25.5 15q51 10 82 20.5t45.5 30t18.5 53t4 91.5v831q0 59 -4 93t-19.5 50.5t-45.5 21.5t-81 7q-16 0 -25.5 9.5t-9.5 21.5t8.5 22.5t26.5 12.5l410 28q18 0 26.5 -9t8.5 -20.5t-9.5 -22.5t-25.5 -13q-51 -8 -81 -17.5t-45 -29t-19.5 -54 t-4.5 -94.5v-280q0 -27 2 -41.5t12.5 -19.5t31 -4t57.5 3l528 37q37 2 57.5 4t30.5 10.5t12.5 22.5t2.5 41v281q0 59 -4.5 93t-19.5 50t-45 21.5t-81 5.5q-16 0 -25.5 10t-9.5 22.5t8.5 22.5t26.5 10l410 29q18 2 26 -7.5t8 -21.5t-9 -23.5t-25 -13.5q-51 -8 -81 -16 t-45.5 -27.5t-19.5 -54.5t-4 -94v-832q0 -57 4 -91t18.5 -51.5t44 -23.5t83.5 -8q16 0 24 -10t8 -22.5t-8 -22.5t-24 -12l-410 -29q-16 0 -25.5 9t-9.5 21.5t9.5 22.5t25.5 14q51 10 82 20.5t45 30t18.5 54.5t4.5 92v334q0 27 -2.5 40t-12.5 18t-30.5 4t-57.5 -3l-528 -37 q-37 -2 -57.5 -4t-31 -9t-12.5 -21.5t-2 -40.5v-334q0 -57 4.5 -91t18.5 -50.5t44 -22.5t83 -8q16 -2 24.5 -12.5t8.5 -22.5t-8.5 -22.5t-24.5 -10.5l-410 -28q-16 -2 -25.5 7t-9.5 21.5z" />
<glyph unicode="I" horiz-adv-x="602" d="M61 -47q0 12 9.5 23.5t25.5 15.5q51 10 82 20.5t45.5 29.5t18.5 53t4 91v832q0 59 -4 93t-19.5 51.5t-45.5 22.5t-81 5q-16 0 -25.5 9t-9.5 21.5t8.5 22.5t26.5 12l410 29q18 2 26.5 -7t8.5 -21.5t-9.5 -23.5t-25.5 -13q-51 -8 -81 -17.5t-45 -29t-19.5 -53.5t-4.5 -93 v-831q0 -57 4.5 -91t18.5 -51.5t44 -23.5t83 -9q16 0 24.5 -10t8.5 -22.5t-8.5 -22.5t-24.5 -12l-410 -29q-16 -2 -25.5 7.5t-9.5 21.5z" />
<glyph unicode="J" horiz-adv-x="643" d="M-135 -360q0 35 23.5 64.5t60.5 33.5q31 4 53.5 -12.5t40.5 -40.5q16 -20 30.5 -29.5t41.5 0.5q47 20 79.5 67.5t53 113t30 143t9.5 161.5v885q0 59 -4 93t-19.5 51.5t-45.5 22.5t-81 5q-16 0 -25.5 10.5t-9.5 21.5t8.5 21.5t26.5 12.5l410 28q18 2 26.5 -7t8.5 -21.5 t-9.5 -23.5t-25.5 -13q-51 -8 -81 -17.5t-45 -29t-19.5 -53t-4.5 -93.5v-778q0 -178 -19.5 -308t-66.5 -217t-123.5 -133.5t-193.5 -54.5q-20 -2 -43 2t-42.5 15.5t-31.5 31t-12 48.5z" />
<glyph unicode="K" horiz-adv-x="1343" d="M61 -73.5q0 12.5 9.5 22.5t25.5 14q51 10 82 20.5t45.5 31t18.5 54t4 91.5v831q0 59 -4 93t-19.5 50.5t-45.5 21.5t-81 5q-16 0 -25.5 10.5t-9.5 22.5t8.5 22.5t26.5 10.5l410 28q18 2 26.5 -7t8.5 -21.5t-9.5 -23.5t-25.5 -13q-51 -8 -81 -16.5t-45 -28t-19.5 -54 t-4.5 -94.5v-456l455 489q12 12 33.5 34.5t40 47.5t30 46.5t3.5 31.5q-14 16 -45 18q-16 1 -31.5 1t-32.5 -1q-16 -2 -24.5 8.5t-8.5 23.5t10.5 24.5t28.5 13.5l457 33q20 2 30.5 -8.5t9.5 -22.5t-11.5 -24.5t-28.5 -14.5q-72 -12 -120 -30.5t-83 -43t-61.5 -52.5t-53.5 -56 l-315 -338q-14 -16 -35.5 -42t-21.5 -42t14 -32.5t27 -29.5l356 -352q53 -53 96 -87t80 -54.5t71 -26.5q26 -5 52 -5q9 0 18 1q18 2 27.5 -8t9.5 -24.5t-9.5 -25.5t-27.5 -13l-440 -31q-16 0 -25.5 10t-9.5 23.5t9.5 24.5t25.5 13l62 9q27 2 39 8t6 24q-4 8 -14.5 21.5 t-24 29t-26.5 29t-21 21.5l-349 348q-16 16 -38.5 21.5t-38.5 -11.5l-95 -104v-250q0 -57 4.5 -91t18.5 -51.5t44 -23.5t83 -8q16 0 24.5 -10.5t8.5 -22.5t-8.5 -22.5t-24.5 -12.5l-410 -28q-16 0 -25.5 9t-9.5 21.5z" />
<glyph unicode="L" horiz-adv-x="1007" d="M61 -61.5q0 12.5 9.5 23.5t25.5 15q51 10 82 20.5t45.5 30t18.5 53.5t4 91v832q0 59 -4 92.5t-19.5 51t-45.5 23t-81 5.5q-16 0 -25.5 9t-9.5 21.5t8.5 22.5t26.5 12l410 29q18 2 26.5 -7.5t8.5 -21.5t-9.5 -23.5t-25.5 -13.5q-51 -8 -81 -17t-45 -28.5t-19.5 -53.5 t-4.5 -93v-789q0 -72 13.5 -120t54.5 -66q20 -11 45 -15q12 -2 28 -2q18 0 40 3q63 4 125.5 14t103.5 47q35 31 65.5 80t53.5 92q8 18 21.5 22.5t25.5 0t18 -17t2 -30.5q-14 -53 -29.5 -107t-29.5 -87t-26.5 -53.5t-45.5 -22.5l-725 -51q-16 -2 -25.5 7t-9.5 21.5z" />
<glyph unicode="M" horiz-adv-x="1622" d="M61 -82q0 12 9.5 23.5t25.5 15.5q51 10 82 20.5t45.5 30t18.5 53t4 91.5v831q0 59 -4 93t-19.5 50.5t-45.5 21.5t-81 7q-16 0 -25.5 9.5t-9.5 21.5t8.5 22.5t26.5 12.5l283 18q31 2 43 -29l373 -1009l401 1063q14 35 43 36l287 19q18 2 26.5 -7t8.5 -21.5t-9.5 -24 t-25.5 -13.5q-51 -8 -81 -16t-45.5 -27.5t-19.5 -54.5t-4 -94v-832q0 -57 4 -91t18.5 -51t44.5 -23.5t83 -8.5q16 0 24.5 -10t8.5 -22.5t-8.5 -22.5t-24.5 -12l-410 -29q-16 0 -25.5 9t-9.5 21.5t9.5 23t25.5 14.5q51 10 82 20t45 29.5t18.5 54.5t4.5 92v983l-451 -1188 q-4 -10 -12 -22t-25 -14q-16 -2 -23 8t-12 24l-415 1114v-972q0 -57 4 -91t18.5 -50.5t44 -22.5t82.5 -8q16 -2 24.5 -12.5t8.5 -22.5t-8 -22.5t-25 -10.5l-381 -27q-16 -2 -25.5 7.5t-9.5 21.5z" />
<glyph unicode="N" horiz-adv-x="1474" d="M61 -75.5q0 12.5 9.5 22.5t25.5 14q51 10 82 20.5t45.5 30t18.5 53t4 91.5v831q0 59 -4 93t-19.5 51.5t-45.5 22.5t-81 5q-16 0 -25.5 10.5t-9.5 22.5t8.5 22.5t26.5 10.5l230 16q29 2 45 -16l774 -1028v850q0 57 -4 90.5t-18.5 51t-45 23t-82.5 9.5q-16 0 -25 10 t-9 22.5t9 22.5t25 12l381 27q16 0 24.5 -9.5t8.5 -21.5t-8.5 -23.5t-24.5 -13.5q-53 -10 -82.5 -20t-44 -29.5t-18.5 -53.5t-4 -91v-1076q0 -29 -21.5 -34.5t-38.5 16.5l-839 1118v-915q0 -57 4 -91t18.5 -51.5t44 -23.5t82.5 -8q16 0 24.5 -10.5t8.5 -22.5t-8 -22.5 t-25 -12.5l-381 -26q-16 0 -25.5 9t-9.5 21.5z" />
<glyph unicode="O" horiz-adv-x="1452" d="M102 553q0 147 47.5 279.5t131.5 232.5t199.5 162.5t252.5 72.5q26 2 51 2q114 0 209 -38q115 -46 194 -134t121 -212t42 -267q0 -150 -47.5 -280.5t-129 -231t-195.5 -162t-245 -69.5q-25 -2 -49 -2q-110 0 -204 37q-116 45 -199.5 132t-131 210t-47.5 268zM236 623 q0 -139 33.5 -258t99 -205t161.5 -131q79 -37 177 -37q22 0 45 2q211 14 336.5 168t125.5 424q0 129 -28.5 247.5t-89 207.5t-155.5 137q-82 42 -190 42q-18 0 -36 -1q-96 -6 -183.5 -52.5t-153 -123t-104 -184t-38.5 -236.5z" />
<glyph unicode="P" horiz-adv-x="1105" d="M61 -63.5q0 12.5 9.5 23.5t25.5 15q51 10 82 20.5t45.5 30t18.5 53.5t4 91v831q0 59 -4 93t-19.5 50.5t-45.5 21.5t-81 8q-16 0 -25.5 9t-9.5 21.5t8.5 22.5t26.5 12l467 33q34 2 66 2q65 0 123 -8q86 -12 145 -58q133 -98 133 -280v-9q0 -101 -45 -179 q-47 -82 -115 -132q-78 -55 -163.5 -75.5t-165.5 -24.5l-185 -12v-318q0 -57 4.5 -91t18.5 -51.5t44 -23.5t83 -8q16 -2 24.5 -12t8.5 -22.5t-8.5 -22.5t-24.5 -10l-410 -29q-16 -2 -25.5 7t-9.5 21.5zM356 578l150 10q72 4 146.5 22.5t135.5 61.5q66 47 88.5 111.5 t22.5 127.5q0 68 -20.5 131.5t-83.5 104.5q-23 14 -53.5 23.5t-65.5 13.5t-70 5t-63 -1l-97 -6q-35 -2 -52 -7.5t-26.5 -18.5t-10.5 -38.5t-1 -70.5v-469z" />
<glyph unicode="Q" horiz-adv-x="1449" d="M100 547q0 147 47.5 279t131 233.5t199.5 164t253 72.5q26 2 51 2q115 0 209 -38q115 -46 194 -134t121 -211.5t42 -267.5q0 -176 -62.5 -324.5t-173.5 -250.5q23 -23 42.5 -37.5t41.5 -18.5q72 -17 125 -17q20 0 37 3q65 8 108 25q12 6 20.5 1t10.5 -13.5t-1 -18.5 t-13 -16q-25 -14 -59.5 -30t-77.5 -27t-92 -15q-16 -1 -32 -1q-32 0 -63 5q-41 8 -75.5 30.5t-69.5 53.5q-63 -41 -134 -64.5t-149 -27.5q-25 -2 -49 -2q-109 0 -204 37q-116 45 -199.5 131t-131 208.5t-47.5 268.5zM233 618q0 -180 55.5 -323t162.5 -225q20 104 89.5 179 t174.5 83q11 1 22 1q46 0 87 -15q50 -17 92 -47.5t78 -68.5t67 -75q72 78 111.5 192t39.5 261q0 129 -28.5 247.5t-89 207.5t-155.5 137q-80 41 -186 41q-19 0 -40 -1q-96 -6 -183.5 -51t-153 -122.5t-104.5 -184t-39 -236.5zM508 35q93 -48 208 -48q17 0 34 1 q119 10 211 61q-33 37 -65 73t-61.5 65.5t-59.5 47t-60 15.5q-39 -2 -74 -20.5t-62.5 -48t-46 -67.5t-24.5 -79z" />
<glyph unicode="R" horiz-adv-x="1204" d="M61 -71.5q0 12.5 9.5 23.5t25.5 15q51 10 82 20.5t45.5 30t18.5 53t4 91.5v831q0 59 -4 93t-19.5 50.5t-45.5 21.5t-81 7q-16 0 -25.5 9.5t-9.5 21.5t8.5 22.5t26.5 12.5l406 29q54 4 105 3q60 -1 116 -5q102 -10 168 -52q72 -47 101.5 -116.5t29.5 -135.5 q0 -53 -16.5 -100t-42 -86t-57.5 -69.5t-64 -51.5q-29 -16 -45.5 -25.5t-38.5 -19.5q-14 -6 -2 -27l264 -403q45 -72 87 -98.5t116 -28.5q16 0 24 -10t8 -22.5t-8 -23t-24 -12.5l-170 -12q-20 0 -31.5 3t-22.5 22l-323 493q-22 33 -52 49q-24 13 -61 14q-9 0 -18 -1l-121 -8 q-47 -4 -57.5 -11.5t-10.5 -33.5v-322q0 -57 4.5 -91t18.5 -51.5t44 -23.5t83 -8q16 0 24.5 -11.5t8.5 -23.5t-8.5 -22.5t-24.5 -10.5l-410 -28q-16 -2 -25.5 7t-9.5 21.5zM356 631q0 -6 2 -11.5t15 -5.5l145 11q72 4 141.5 20.5t126.5 61.5q61 49 83 111.5t22 113.5 q0 53 -19.5 108.5t-83.5 98.5q-46 31 -108 39q-42 5 -80 5q-19 0 -37 -1l-117 -8q-35 -2 -52 -6.5t-26.5 -18.5t-10.5 -41t-1 -72v-405z" />
<glyph unicode="S" horiz-adv-x="1040" d="M102 219q-2 16 6.5 28.5t20.5 16.5t25.5 -3t19.5 -28q42 -135 112 -192q65 -53 161 -53h14q66 2 131 18.5t117.5 49t85 85t32.5 123.5q0 39 -20.5 78t-55 76t-81.5 69.5t-103 59.5l-172 84q-98 47 -168.5 129t-70.5 184q0 78 31.5 142.5t86 111.5t128 74.5t159.5 34.5 q24 2 48 2q39 -1 77 -5q62 -6 117 -24q10 -4 28 -4q16 -4 19.5 -16.5t5.5 -24.5q2 -6 5 -26.5t6 -47t7.5 -54.5t6.5 -50q2 -16 -7.5 -29.5t-21.5 -17.5t-24.5 2t-20.5 28q-10 25 -28.5 59t-45.5 60q-35 35 -79 53q-36 14 -84 14q-11 0 -23 -1q-53 -4 -101.5 -23.5t-85 -52.5 t-58 -78t-21.5 -100q0 -86 55 -148.5t123 -95.5l147 -70q66 -31 126.5 -69.5t106.5 -82.5t72.5 -95.5t26.5 -106.5q0 -98 -39 -173t-109.5 -125t-169 -74.5t-214.5 -24.5q-68 0 -124.5 14t-113.5 43q-18 8 -23 21q-10 23 -18 57.5t-12 70t-7.5 65.5t-5.5 42z" />
<glyph unicode="T" horiz-adv-x="1196" d="M41 981l57 295q6 29 29 29t33 -23q14 -33 55 -35q14 -1 27 -1l55 3l602 41q41 2 82 10.5t55 42.5q10 23 33 27t29 -24l57 -287q2 -16 -5 -27.5t-19.5 -16.5t-24.5 -2t-19 19q-12 29 -33.5 62.5t-56.5 68.5q-33 31 -92 36q-33 3 -66 3q-26 0 -53 -2l-69 -4q-23 -2 -36 -4 t-19.5 -8t-7.5 -19.5t-1 -38.5v-931q0 -57 4.5 -91t18.5 -51.5t44 -23.5t83 -9q16 0 24.5 -10t8.5 -22.5t-8.5 -22.5t-24.5 -12l-410 -29q-16 -2 -25.5 7.5t-9.5 21.5t9.5 23.5t25.5 15.5q51 10 82 20.5t45.5 29.5t18.5 53t4 91v932q0 47 -8.5 56.5t-55.5 5.5l-69 -4 q-59 -4 -119 -19.5t-92 -50.5q-35 -39 -56.5 -76t-33.5 -67q-6 -16 -18.5 -20.5t-25 -1.5t-20.5 13.5t-4 26.5z" />
<glyph unicode="U" horiz-adv-x="1460" d="M61 1192q0 12 8.5 22.5t26.5 10.5l410 28q18 2 26.5 -7t8.5 -21.5t-9.5 -23.5t-25.5 -13q-51 -8 -81 -16.5t-45 -28t-19.5 -54t-4.5 -94.5v-510q0 -117 19.5 -208t63.5 -153t119 -90q59 -22 138 -22q22 0 47 2q88 6 160 34t123 86.5t79 154.5t28 241v517q0 57 -4.5 90.5 t-18.5 51t-45 23t-82 9.5q-16 0 -25.5 10t-9.5 22.5t9.5 22.5t25.5 12l381 27q16 0 24.5 -9.5t8.5 -21.5t-8.5 -23.5t-24.5 -13.5q-53 -10 -83 -20t-44 -29.5t-18.5 -53.5t-4.5 -91v-549q0 -176 -43 -287t-112.5 -174t-157.5 -89t-180 -32q-25 -2 -49 -2q-74 0 -140 18 q-88 24 -151.5 83t-99 154t-35.5 231v581q0 59 -4 93t-19.5 51.5t-45.5 22.5t-81 5q-16 0 -25.5 10.5t-9.5 22.5z" />
<glyph unicode="V" horiz-adv-x="1363" d="M11 1187q-1 13 7.5 24.5t28.5 13.5l383 26q16 2 25.5 -8t9.5 -22.5t-9.5 -24.5t-29.5 -14q-12 -2 -33.5 -4t-42 -7.5t-34 -15.5t-11.5 -27q4 -39 32 -105.5t60 -150.5l287 -727q4 -8 9 -7t9 9l281 781q27 72 50.5 138.5t27.5 111.5q4 35 -24.5 38t-104.5 3 q-18 0 -28.5 10t-10.5 22.5t9 23.5t28 11l393 29q16 0 24.5 -10.5t6.5 -24.5t-12.5 -26.5t-30.5 -14.5q-82 -6 -114 -33.5t-46 -64.5l-438 -1204q-10 -29 -28.5 -31t-29.5 26l-446 1121q-18 47 -53 72.5t-107 25.5q-18 0 -27.5 11.5t-10.5 24.5z" />
<glyph unicode="W" horiz-adv-x="1968" d="M11 1166.5q-1 13.5 7.5 24.5t28.5 13l359 25q16 2 25 -8.5t9 -22.5t-9 -24.5t-30 -14.5q-12 -2 -29.5 -4t-31.5 -6t-23.5 -14.5t-7.5 -26.5q4 -39 33 -108.5t61 -147.5l312 -725q4 -8 9 -8t9 8l201 514l-182 428q-20 47 -54 72.5t-106 27.5q-18 0 -27.5 11.5t-10.5 25 t7 24.5t29 13l332 23q16 0 25 -9.5t9 -21.5t-9 -24.5t-29 -14.5q-23 -4 -46.5 -10t-19.5 -41q4 -37 32.5 -107.5t61.5 -146.5l45 -105l49 125q29 72 51.5 137.5t26.5 112.5q4 29 -8 38t-51 7q-18 -2 -28.5 8.5t-10.5 23.5t9 24.5t28 11.5l327 24q16 0 24.5 -11t6.5 -24.5 t-12 -25.5t-31 -14q-82 -6 -113.5 -35t-46.5 -64l-174 -448l219 -512q4 -6 9.5 -6t9.5 8l307 782q29 72 51.5 138.5t26.5 111.5q4 29 -9.5 39t-60.5 6q-18 -2 -28.5 8.5t-10.5 23.5t9.5 24.5t27.5 13.5l338 22q16 2 24.5 -9t6.5 -24.5t-12.5 -25.5t-30.5 -14 q-82 -8 -114 -37t-46 -64l-469 -1206q-10 -29 -28.5 -30t-28.5 26l-248 579l-238 -612q-10 -29 -28.5 -31t-28.5 27l-477 1118q-20 47 -54 71.5t-106 26.5q-18 0 -27.5 11.5t-10.5 25z" />
<glyph unicode="X" horiz-adv-x="1384" d="M11 -74.5q1 13.5 10.5 25.5t27.5 16q72 10 122 44t101 108l357 508l-316 407q-51 66 -96 92.5t-117 28.5q-18 0 -27.5 11.5t-10.5 24.5t7.5 24.5t28.5 13.5l385 26q16 0 25.5 -9t9.5 -22.5t-9 -24.5t-30 -13q-27 -4 -59.5 -10.5t-32.5 -38.5q0 -16 12.5 -36t28.5 -42 l264 -340l264 377q16 25 28.5 45t12.5 37q0 16 -9 24t-23.5 11.5t-30.5 2t-29 -1.5q-20 0 -29.5 10.5t-9.5 24t9.5 24.5t25.5 11l365 27q20 0 28.5 -10.5t7 -23.5t-10.5 -25.5t-27 -14.5q-72 -12 -117 -45t-96 -107l-306 -436l367 -473q53 -66 102.5 -91.5t120.5 -27.5 q18 0 27.5 -11t10.5 -24.5t-7 -24.5t-29 -13l-395 -27q-16 -2 -25.5 8t-9.5 22.5t9.5 24t29.5 15.5q12 2 28.5 3t31 6t23.5 14t9 26q0 16 -12 34.5t-29 41.5l-315 407l-315 -450q-16 -25 -28.5 -46.5t-12.5 -37.5t9 -24.5t23.5 -10.5t31 -1t28.5 1q20 0 29.5 -10.5 t9.5 -23.5t-9.5 -24.5t-25.5 -11.5l-375 -26q-20 -2 -28.5 8t-7.5 23.5z" />
<glyph unicode="Y" horiz-adv-x="1318" d="M11 1189q-1 13 7.5 24.5t28.5 13.5l375 26q16 0 25.5 -9t9.5 -22.5t-9.5 -24.5t-29.5 -13q-27 -4 -59.5 -10.5t-32.5 -38.5q0 -16 10 -35.5t26 -42.5l308 -482l307 525q16 27 26.5 46t10.5 36q0 16 -9.5 24t-23.5 11.5t-30.5 2.5t-28.5 -1q-20 0 -29.5 10t-9.5 22.5 t9 23.5t26 13l354 25q20 2 28.5 -8.5t7.5 -24.5t-10.5 -26.5t-27.5 -14.5q-72 -10 -115 -42t-88 -107l-279 -476q-33 -55 -54 -101t-21 -114v-204q0 -57 4 -91t18.5 -51.5t44 -23.5t82.5 -9q16 0 24.5 -11t8.5 -23.5t-8 -22.5t-25 -10l-409 -29q-16 -2 -25.5 7.5t-9.5 21.5 t9 23.5t26 15.5q51 10 81.5 20.5t45 29.5t18.5 53t4 91v230q0 53 -20.5 93t-51.5 89l-278 434q-45 72 -88 95.5t-115 25.5q-18 0 -27.5 11.5t-10.5 24.5z" />
<glyph unicode="Z" horiz-adv-x="1214" d="M62.5 -89q-9.5 9 13.5 38l817 1194q4 8 15.5 25.5t9.5 27.5q-1 10 -33 10q-14 0 -33 -2l-291 -20q-59 -4 -119.5 -12.5t-107.5 -47.5q-35 -29 -58.5 -64.5t-46.5 -88.5q-6 -14 -19 -20.5t-24.5 -3.5t-18.5 15.5t-1 34.5q35 162 84 260q4 10 10 21.5t16 13.5q10 0 15.5 -3 t15.5 -15q13 -21 53 -21h8q46 2 105 7l604 43q35 4 37 -5.5t-12 -29.5l-819 -1194q-10 -12 -18.5 -26.5t-12.5 -26t0 -18.5t22 -5l471 33q57 4 116 12t106 47q37 33 67.5 81t52.5 95q8 18 20.5 23.5t24 1.5t18.5 -16.5t3 -28.5q-16 -55 -32.5 -112.5t-28.5 -90.5 q-14 -33 -26.5 -52.5t-45.5 -23.5l-932 -65q-16 0 -25.5 9z" />
<glyph unicode="[" horiz-adv-x="550" d="M164 -301v1802q0 27 26 29l308 20q16 2 24 -10t8 -27.5t-8 -29t-24 -15.5l-224 -14v-1692l224 15q16 2 24 -10.5t8 -27.5t-8 -28.5t-24 -15.5l-308 -21q-27 -2 -26 25z" />
<glyph unicode="\" horiz-adv-x="829" d="M84 1444q-6 20 5 36.5t29.5 24.5t37 3t26.5 -29l561 -1700q8 -25 -3 -42.5t-29.5 -23.5t-38 1t-27.5 30z" />
<glyph unicode="]" horiz-adv-x="550" d="M20 -287.5q0 15.5 8.5 28.5t24.5 15l223 15v1691l-223 -14q-16 -2 -24.5 10t-8.5 27.5t8.5 29t24.5 15.5l307 20q27 2 27 -24v-1802q0 -27 -27 -29l-307 -21q-16 -2 -24.5 10.5t-8.5 28z" />
<glyph unicode="^" horiz-adv-x="868" d="M16.5 955.5q-6.5 19.5 8.5 43.5l337 578q23 37 56 39t55 -31l340 -532q14 -23 7 -42.5t-22.5 -30.5t-36 -9t-34.5 24l-309 486l-309 -531q-14 -25 -35 -28.5t-36 5.5t-21.5 28.5z" />
<glyph unicode="_" horiz-adv-x="1024" d="M0 -307h1024v-103h-1024v103z" />
<glyph unicode="`" horiz-adv-x="669" d="M102.5 1411q-4.5 23 34.5 57q39 35 61 29t40 -29l319 -413q12 -16 10 -30.5t-11 -24t-24.5 -9.5t-29.5 15l-375 362q-20 20 -24.5 43z" />
<glyph unicode="a" horiz-adv-x="964" d="M82 92q0 72 36 128t100.5 102.5t155.5 84t199 74.5q25 8 40.5 15.5t23.5 15.5t10 20.5t2 32.5v94q0 29 -7 57.5t-25.5 50t-51.5 33.5q-24 9 -59 8q-12 0 -25 -1q-39 -4 -79 -16.5t-72.5 -32t-54 -47t-23.5 -60.5q-4 -39 -39 -64.5t-90 -29.5q-10 -2 -18.5 4t-8.5 21 q0 39 25.5 77.5t56.5 69.5q72 74 157 119t183 49q15 1 29 1q62 0 101 -14q48 -18 72.5 -46.5t32 -65.5t7.5 -72v-458q0 -29 1 -53.5t7 -49.5q8 -31 18.5 -48t42.5 -13q35 2 76 33q8 6 16.5 4t13.5 -9.5t6 -17.5t-5 -18q-35 -51 -90 -85t-96 -38q-35 -2 -47.5 7t-28.5 44 q-8 12 -17.5 35.5t-23.5 21.5q-4 0 -16.5 -8t-30 -20.5t-36 -25.5t-36.5 -24q-53 -29 -114.5 -51t-129.5 -26h-12q-28 0 -56 8q-34 10 -60.5 34.5t-43 61.5t-16.5 88zM199 119q0 -39 6 -61.5t22.5 -34t44.5 -14.5q12 -1 28 -1q20 0 44 2q33 2 72 15.5t76.5 33t71.5 44 t57 51.5q8 10 14 17t9 18.5t4 29.5t1 49v97q0 27 -7 40t-36 3q-115 -41 -192.5 -78t-125.5 -72t-68.5 -69.5t-20.5 -69.5z" />
<glyph unicode="b" horiz-adv-x="1157" d="M91 1283q-1 26 24 32q39 10 93 37.5t97 58.5q10 8 20.5 3t10.5 -21v-590q0 -20 5 -27.5t12 -7.5t17.5 5t20.5 11q72 39 146.5 67t148.5 32q9 1 18 1q58 0 116 -22q66 -26 117.5 -80.5t84.5 -133.5t33 -181q0 -137 -37 -236.5t-99.5 -166t-145.5 -100.5t-175 -40 q-21 -1 -41 -1q-34 0 -62 4q-44 7 -77 18q-27 6 -56.5 14t-42.5 6q-12 0 -23 -11t-17 -28q-8 -12 -16.5 -29.5t-22.5 -17.5q-4 -2 -12.5 2t-6.5 17q2 23 3 42t1 40v1118q0 53 -3 84.5t-13 48t-31.5 21.5t-58.5 5q-27 0 -28 26zM336 238q0 -51 17.5 -99.5t45.5 -77.5 q20 -23 46 -34t52.5 -15t50 -3t40.5 3q70 4 133 29t109.5 72t74 122t27.5 179q0 74 -21.5 142.5t-64.5 118.5q-42 51 -108 75q-42 16 -93 15q-29 0 -61 -5q-72 -10 -129.5 -36t-98.5 -67q-14 -16 -17 -50t-3 -58v-311z" />
<glyph unicode="c" horiz-adv-x="978" d="M102 360q0 106 37 201.5t104.5 169.5t163 120t209.5 54q16 1 31 1l87 -8q59 -11 108 -48q18 -12 23 -42t5 -56q0 -16 -7 -36t-18 -31t-25.5 -9t-28.5 26q-33 55 -91 84q-51 25 -109 25h-16q-78 -6 -142 -42t-110.5 -92t-71 -129t-24.5 -149q1 -187 97 -287 q85 -89 225 -88q18 0 37 1q72 4 143.5 41.5t118.5 105.5q12 16 24.5 18.5t21.5 -4t12 -19t-3 -24.5q-55 -104 -150.5 -158.5t-211.5 -64.5q-17 -1 -33 -1q-79 1 -146 25q-81 30 -138.5 89t-89.5 143t-32 184z" />
<glyph unicode="d" horiz-adv-x="1159" d="M102 334q0 137 42 236.5t106.5 165t141.5 99t147 37.5q22 1 44 1q43 0 85 -5q63 -8 98 -22q20 -8 37.5 -9t17.5 33v269q0 53 -3 84.5t-13 48t-31.5 21.5t-58.5 5q-27 0 -28 26t24 32q39 10 93 37.5t97 58.5q10 6 20.5 2t10.5 -20v-1276q0 -39 7 -77t36 -42q18 -2 35.5 2 t29.5 8q33 14 39 -14q4 -16 -2 -22.5t-14 -10.5q-6 -2 -37 -13.5t-68.5 -24.5t-71.5 -25.5t-44 -14.5q-20 -8 -21 21v55q0 20 -5 27.5t-12 6.5t-17.5 -6t-20.5 -12q-72 -39 -157 -68.5t-158 -35.5q-10 -1 -20 -1q-57 1 -111 21q-62 24 -110 75.5t-78 133.5t-30 193zM225 389 q0 -86 15.5 -154.5t52.5 -115.5t99 -69q49 -18 119 -19q18 0 38 2q72 4 144.5 32.5t109.5 69.5q18 20 18 54v59v317q0 57 -23.5 99.5t-61.5 68t-88 36.5q-37 8 -75 8q-14 0 -28 -1q-49 -4 -104.5 -25.5t-103.5 -67.5t-80 -118.5t-32 -175.5z" />
<glyph unicode="e" horiz-adv-x="1081" d="M102 371q0 90 33 181t94.5 166t149.5 124t199 57q20 1 38 2q76 -1 138 -21q76 -24 127 -76t75 -129q23 -71 23 -159v-14q-2 -29 -12.5 -40t-28.5 -11l-678 -50q-23 -2 -28 -10t-5 -29q0 -80 24.5 -145t74.5 -111q48 -44 122 -66q55 -16 124 -17q22 0 46 2q88 6 161 46 t126 105q12 16 26.5 18.5t25 -5t12.5 -20.5t-6 -28q-82 -117 -187.5 -165t-216.5 -56q-18 -1 -37 -1q-74 -1 -140 19q-83 24 -145.5 82t-98.5 146t-36 205zM250 510q0 -29 29 -25l520 37q31 2 35 29q4 24 4 48q0 27 -6 55q-10 50 -38 89t-79 59q-43 17 -101 18q-11 0 -24 -1 q-63 -4 -125 -31.5t-109 -70.5t-76.5 -97.5t-29.5 -109.5z" />
<glyph unicode="f" horiz-adv-x="722" d="M93.5 793.5q-3.5 19.5 25.5 29.5q10 4 25.5 10.5t29.5 13.5t26.5 13t18.5 10q12 8 19.5 15.5t7.5 23.5v99q0 129 45 225t117.5 150.5t161.5 60.5q10 1 19 1l159 -44q18 -10 26 -36t6 -52.5t-15 -48t-36 -25.5q-25 -4 -40 15.5t-34.5 42t-50.5 41.5q-26 17 -68 17 q-9 0 -18 -1q-59 -4 -91 -43t-48.5 -87t-19.5 -95.5t-3 -69.5v-125q0 -35 3 -47.5t28 -9.5l205 14q20 2 30.5 -10.5t10.5 -27.5t-10.5 -28.5t-30.5 -15.5l-205 -14q-25 -2 -28 -12.5t-3 -43.5v-555q0 -59 4.5 -94t15.5 -52.5t32.5 -22.5t56.5 -7q16 0 24.5 -10t8.5 -22.5 t-8.5 -22.5t-24.5 -12l-328 -23q-16 -2 -25.5 7t-9.5 21.5t9.5 24t25.5 15.5q35 6 56.5 14t33 27.5t15.5 54.5t4 94v555q0 33 -3 44t-28 7l-98 -6q-20 -2 -23.5 17.5z" />
<glyph unicode="g" horiz-adv-x="1011" d="M61 -295q0 43 25 83t54.5 74t54 58.5t24.5 38.5t-24 23q-25 10 -49.5 25.5t-41 34.5t-19.5 39.5t13 39.5q18 18 45 43.5t50.5 50.5t37 44.5t2.5 25.5q-72 51 -101.5 121.5t-29.5 138.5q0 76 32 138t85 106.5t120 71t138 32.5q19 1 36 1q33 0 56 -5q35 -8 84 -27 q27 -8 58.5 -15t56.5 -3l166 10q18 2 27.5 -10.5t9.5 -27.5t-9.5 -28.5t-27.5 -15.5l-119 -8q-12 0 -21.5 -6t-2.5 -17q18 -35 24 -86q3 -24 3 -48q0 -28 -4 -58q-7 -55 -29.5 -108.5t-61.5 -90.5q-39 -39 -88 -61.5t-102.5 -33.5t-105.5 -12h-15q-43 0 -82 5 q-10 2 -34 -16.5t-45.5 -42t-35.5 -47t-8 -31.5q14 -16 44 -33q23 -13 55 -13q10 0 20 1l340 24q19 1 37 1q99 0 169 -37q82 -44 82 -138q0 -74 -32.5 -143.5t-99 -125t-168 -92t-238.5 -44.5q-28 -2 -55 -2q-41 0 -79 5q-65 9 -114 33.5t-78 63.5t-29 94zM180 -260 q0 -66 68 -108q53 -33 156 -33q27 0 57 2q68 4 137.5 19t124.5 44t91 72t36 104q0 53 -24.5 84t-64.5 45.5t-89 15.5h-33q-33 0 -66 -1l-206 -15q-29 -2 -62 -24.5t-60.5 -55t-46 -72.5t-18.5 -77zM215 557q0 -49 19.5 -95t57.5 -79t91 -49q37 -12 82 -12q19 0 39 2 q35 2 71.5 15t67.5 40t51.5 70.5t20.5 111.5q0 49 -15.5 96.5t-45 82t-72.5 54.5q-36 18 -82 18q-10 0 -19 -1q-125 -10 -195.5 -82t-70.5 -172z" />
<glyph unicode="h" horiz-adv-x="1208" d="M82 -65.5q0 12.5 9 22.5t26 14q35 8 56.5 16.5t32.5 28t15 54t4 94.5v932q0 53 -3 84.5t-13 48t-31.5 21.5t-58.5 5q-27 0 -28 26t24 32q39 10 93 37.5t97 58.5q10 8 20.5 3t10.5 -21v-656q0 -14 4 -12t6 4q33 33 76 63.5t91 54t97 39t99 19.5q11 1 21 1q45 0 86 -14 q50 -18 87 -54.5t57.5 -90t20.5 -122.5v-406q0 -59 4 -94t15.5 -52.5t33 -22.5t56.5 -7q16 -2 24 -12.5t8 -22.5t-8 -22.5t-24 -10.5l-328 -24q-16 0 -25.5 9t-9.5 21.5t9 22.5t26 14q35 8 56.5 16.5t32.5 28t15 54.5t4 94v375q0 47 -8 88t-31.5 70.5t-67.5 43.5 q-34 11 -86 12q-14 0 -30 -1q-27 -2 -65.5 -13.5t-80.5 -32t-83 -52t-68 -74.5q-4 -10 -9 -24.5t-5 -31.5v-397q0 -59 4 -94t15.5 -52.5t33 -22.5t55.5 -7q16 -2 24.5 -12.5t8.5 -22.5t-8 -22.5t-25 -10.5l-327 -24q-16 0 -25.5 9t-9.5 21.5z" />
<glyph unicode="i" horiz-adv-x="561" d="M82 -43q0 12 9 22.5t26 14.5q35 8 56.5 16t32.5 27.5t15 54.5t4 94v400q0 53 -3 84.5t-13 48t-31.5 21.5t-58.5 5q-27 0 -28 26t24 32q39 10 93 37.5t97 58.5q10 8 20.5 3t10.5 -21v-686q0 -59 4 -94t15.5 -52.5t33 -23t55.5 -7.5q16 -2 24.5 -12t8.5 -22.5t-8 -22.5 t-25 -10l-327 -25q-16 0 -25.5 9.5t-9.5 21.5zM170 1200q0 41 27.5 70.5t68.5 34.5h6q36 0 62 -24q28 -26 28 -67t-27.5 -70.5t-68.5 -31.5q-6 -1 -11 -1q-33 1 -57 23q-28 26 -28 66z" />
<glyph unicode="j" horiz-adv-x="581" d="M-27 -468q2 11 17 22q143 88 198.5 209.5t55.5 283.5v547q0 53 -3 85t-13.5 49t-32 22.5t-58.5 5.5q-27 0 -27.5 24.5t23.5 32.5q39 10 93.5 37t97.5 57q10 8 20 3t10 -21v-791q0 -123 -23.5 -216t-67.5 -163.5t-106.5 -123t-138.5 -91.5q-14 -8 -25 -5t-16.5 12.5 t-3.5 20.5zM186 1208q0 41 28 71t69 34h6q37 0 63 -23q27 -26 27 -67t-27.5 -71t-68.5 -32q-6 -1 -11 -1q-34 0 -58 23q-28 25 -28 66z" />
<glyph unicode="k" horiz-adv-x="1126" d="M82 -65.5q0 12.5 9 23.5t26 15q35 6 56.5 14.5t32.5 28t15 54t4 94.5v932q0 53 -3 84.5t-13 49t-31.5 22.5t-58.5 5q-12 0 -19.5 7.5t-8.5 16.5t5 18.5t19 13.5q39 10 93 37.5t97 58.5q10 8 20.5 3t10.5 -21v-977l317 268q71 59 71 88q0 6 -3 10q-8 14 -32.5 19.5 t-57.5 1.5q-16 0 -24.5 10t-8.5 23.5t10 24.5t29 11l379 27q20 2 31.5 -7t11.5 -21.5t-9.5 -25t-27.5 -16.5q-43 -10 -75 -23t-62.5 -33.5t-62 -48.5t-72.5 -63l-136 -112q-29 -25 -43 -42.5t-14 -33.5t13.5 -31.5t27.5 -29.5l225 -236q43 -47 74 -73.5t59 -40.5 q26 -13 54 -16q16 -2 38 -2q14 0 29 1q18 2 28.5 -8t11.5 -23.5t-7 -26t-27 -12.5l-409 -28q-16 -2 -25.5 7t-11.5 21.5t6 23.5t25 15q49 10 66.5 15.5t25.5 21.5q4 10 -1 22.5t-32 41.5l-244 258q-16 18 -31.5 22t-33.5 -12l-82 -70v-139q0 -59 4 -94t15.5 -52.5t33 -22.5 t55.5 -7q16 -2 24.5 -12.5t8.5 -22.5t-8.5 -22.5t-24.5 -10.5l-327 -22q-16 -2 -25.5 7t-9.5 21.5z" />
<glyph unicode="l" horiz-adv-x="559" d="M82 -43q0 12 9 22.5t26 14.5q35 8 56.5 16t32.5 27.5t15 54.5t4 94v932q0 53 -3 85t-13 48.5t-31.5 21.5t-58.5 5q-27 0 -28 25.5t24 31.5q39 10 93 38t97 59q10 8 20.5 3t10.5 -22v-1218q0 -59 4 -94t15.5 -52.5t33 -23t55.5 -7.5q16 -2 24.5 -12t8.5 -22.5t-8 -22.5 t-25 -10l-327 -25q-16 0 -25.5 9.5t-9.5 21.5z" />
<glyph unicode="m" horiz-adv-x="1748" d="M80 -84q0 12 9 22.5t26 14.5q35 6 56.5 15t32.5 28.5t15 54.5t4 94v410q0 53 -3 83t-13 45t-31.5 18.5t-58.5 3.5q-27 0 -28 25.5t24 31.5q39 10 93 37.5t97 58.5q10 6 20.5 2t10.5 -20v-105q0 -16 6 -19t14 5q63 59 138 106t167 54q11 1 21 1q64 0 106 -22 q50 -24 91 -84q8 -10 14 -18t12 -13q16 -6 39 13q72 70 150.5 113.5t160.5 50.5q14 1 26 1q69 0 113 -27q52 -32 83 -85q29 -49 38 -110.5t9 -131.5v-333q0 -59 4 -94.5t15 -52.5t32.5 -22.5t56.5 -7.5q16 0 24.5 -11t8.5 -23.5t-8 -22.5t-25 -10l-327 -23q-16 -2 -25.5 7.5 t-9.5 21.5t9 23.5t26 15.5q35 6 56 14t32.5 27.5t15.5 54.5t4 94v389q0 98 -49 151.5t-139 53.5q-57 0 -116.5 -27.5t-109.5 -78.5q-25 -27 -39 -50.5t-21 -48t-8 -52t-1 -62.5v-307q0 -59 4 -94t15 -52.5t32.5 -23t56.5 -7.5q16 -2 24.5 -12t8.5 -22.5t-8 -22.5t-25 -10 l-327 -25q-16 0 -25.5 9.5t-9.5 21.5t9 22.5t26 14.5q35 8 56 16t32.5 27.5t15.5 54.5t4 94v389q0 98 -49 150.5t-139 54.5q-57 0 -116.5 -28.5t-109.5 -77.5q-25 -27 -39 -50.5t-21 -48t-8 -52t-1 -62.5v-307q0 -59 4 -94t15.5 -52.5t33 -24t55.5 -8.5q16 0 24.5 -10 t8.5 -22.5t-8 -22.5t-25 -12l-327 -23q-16 0 -25.5 9.5t-9.5 21.5z" />
<glyph unicode="n" horiz-adv-x="1196" d="M82 -65.5q0 12.5 9 23.5t26 15q35 6 56.5 14.5t32.5 28t15 54t4 94.5v409q0 53 -3 83t-13 45.5t-31.5 19.5t-58.5 4q-12 0 -19.5 7t-8.5 16.5t5 18.5t19 13q39 10 93 38t97 59q10 8 20.5 2.5t10.5 -21.5v-104q0 -16 6 -18.5t14 5.5q63 59 140 105.5t176 54.5q16 1 31 1 q62 0 107 -20q56 -24 92 -69t52.5 -106.5t16.5 -131.5v-358q0 -59 4 -94t15 -52.5t32.5 -23.5t56.5 -8q16 0 24.5 -10.5t8.5 -22.5t-8 -22.5t-25 -12.5l-327 -22q-16 0 -25.5 9t-9.5 21.5t9 22.5t26 14q35 8 56 16.5t32.5 28t15.5 54.5t4 94v379q0 96 -60 158 q-53 54 -137 54q-11 0 -22 -1q-59 -4 -122.5 -30t-112.5 -77q-25 -27 -39.5 -50.5t-21.5 -48t-8 -52t-1 -62.5v-307q0 -59 4 -94t15.5 -52.5t33 -22.5t55.5 -7q16 -2 24.5 -12.5t8.5 -22.5t-8 -22.5t-25 -10.5l-327 -22q-16 -2 -25.5 7t-9.5 21.5z" />
<glyph unicode="o" horiz-adv-x="1183" d="M102 377q0 106 40 198.5t108.5 161t160 111.5t193.5 49q16 1 33 1q75 0 145 -22q86 -28 152.5 -84.5t106.5 -140.5t40 -188q0 -109 -37.5 -204t-104.5 -168t-156 -119t-193 -52q-17 -1 -33 -1q-79 1 -153 25q-88 30 -156 91t-107 148t-39 194zM227 406q0 -98 34 -175 t89 -129q56 -52 124 -78q55 -21 108 -21q13 0 26 1q61 4 124 35t113 85t80.5 130t30.5 170q0 98 -32.5 173t-85 125t-120.5 74q-58 20 -116 20q-10 0 -20 -1q-68 -4 -131.5 -33.5t-112.5 -82t-80 -127t-31 -166.5z" />
<glyph unicode="p" horiz-adv-x="1157" d="M82 -534.5q0 12.5 9 23.5t26 15q35 6 56.5 14.5t32.5 28t15 54t4 94.5v891q0 53 -3 84.5t-13 49t-31.5 23t-58.5 5.5q-12 0 -19.5 7t-8.5 16t5 18.5t19 13.5q39 10 93 37.5t97 58.5q10 8 20.5 3t10.5 -21v-74q0 -20 5 -27.5t12 -6.5t17.5 6t20.5 12q72 39 157 68.5 t159 35.5q10 1 19 1q58 0 111 -22q62 -24 110 -76.5t78 -130t30 -178.5q0 -125 -42 -219t-106.5 -157.5t-141.5 -98t-147 -39.5q-21 -1 -42 -1q-44 0 -87 6q-63 8 -98 22q-20 8 -37.5 9t-17.5 -34v-274q0 -59 4 -94t15.5 -52.5t33 -22.5t55.5 -7q16 -2 24.5 -12.5t8.5 -22.5 t-8 -22.5t-25 -10.5l-327 -22q-16 -2 -25.5 7t-9.5 21.5zM336 283q0 -57 22.5 -99.5t61.5 -68t89 -37.5q37 -9 77 -9q13 0 26 1q49 4 104.5 27.5t103.5 68.5t80 112.5t32 161.5q0 78 -15.5 142.5t-52.5 109.5t-100 66q-48 17 -116 17q-19 0 -40 -1q-72 -4 -144.5 -32.5 t-109.5 -69.5q-18 -23 -18 -55.5v-57.5v-276z" />
<glyph unicode="q" horiz-adv-x="1157" d="M102 360q0 125 37 220.5t99.5 161t145.5 100.5t175 41q21 1 39 1q35 0 64 -4q45 -8 77 -18q27 -6 56.5 -14t42.5 -6q12 0 23 11t18 28q8 12 16 29.5t23 17.5q4 0 12 -3t6 -16q-2 -23 -3 -42t-1 -40v-1083q0 -59 4 -94t15.5 -52.5t33 -23.5t55.5 -8q16 0 24.5 -10.5 t8.5 -22.5t-8.5 -22.5t-24.5 -12.5l-327 -22q-16 0 -25.5 9t-9.5 21.5t9 22.5t26 14q35 8 56.5 16.5t32.5 28t15 54t4 94.5v309q0 20 -5 27.5t-12 7.5t-17.5 -5t-20.5 -12q-72 -39 -146.5 -66.5t-148.5 -31.5q-9 -1 -18 -1q-59 0 -115 22q-66 26 -118 78.5t-85 128 t-33 167.5zM225 412q0 -68 21.5 -132.5t64.5 -111.5t109 -70q43 -16 96 -16q27 0 57 4q72 12 129.5 36.5t98.5 67.5q14 16 17 50t3 59v270q0 51 -17.5 99.5t-45.5 76.5q-20 23 -47 34.5t-52.5 15.5t-49 3t-40.5 -3q-72 -4 -134 -29t-108 -72t-74 -117.5t-28 -164.5z" />
<glyph unicode="r" horiz-adv-x="761" d="M82 -51q0 12 9 22.5t26 14.5q35 6 56.5 15t32.5 28.5t15 54.5t4 94v400q0 53 -3 84.5t-13 48t-31.5 21.5t-58.5 5q-27 0 -28 25.5t24 32.5q39 10 93 37.5t97 58.5q10 6 20.5 2t10.5 -21v-120q0 -14 6 -14.5t14 7.5q29 31 65 60t73.5 50.5t75.5 34.5t69 15h7q44 -1 64 -25 q21 -24 21 -54v-6q-2 -34 -24.5 -64.5t-63.5 -32.5q-23 -2 -37 7t-27.5 18.5t-31 14.5t-45.5 -1q-78 -16 -122 -86t-44 -174v-316q0 -59 4 -94t15.5 -52t33 -23.5t55.5 -8.5q16 0 24.5 -10t8.5 -22.5t-8 -22.5t-25 -12l-327 -23q-16 0 -25.5 9.5t-9.5 21.5z" />
<glyph unicode="s" horiz-adv-x="819" d="M78 170q-2 14 6 25.5t19.5 15.5t22.5 0t17 -21q14 -41 36 -77.5t53 -62.5q30 -26 71 -40q32 -11 73 -11q11 0 23 1q47 2 90 16.5t75 36t51.5 51t19.5 64.5q0 43 -15.5 73.5t-46 53t-75.5 42t-103 40.5q-55 20 -104 46t-88 55.5t-61.5 64.5t-22.5 75q0 100 60.5 163 t147.5 93q84 29 176 28h6q95 -1 165 -28q18 -10 28 -34q6 -29 12.5 -59.5t8.5 -59.5q0 -18 -8 -29.5t-18.5 -14.5t-21.5 2t-16 19q-23 55 -85 89q-55 30 -125 30h-17q-86 -6 -145.5 -49t-59.5 -104q0 -31 12.5 -55.5t42 -48t77 -45t116.5 -46.5q63 -23 112.5 -47.5t84.5 -55 t53 -70.5t18 -93q0 -74 -36.5 -126t-93 -87t-123 -53.5t-123.5 -22.5q-14 -1 -27 -1q-66 1 -116 17q-60 20 -101 52q-12 10 -16.5 18t-8.5 25q-10 33 -13 71.5t-7 73.5z" />
<glyph unicode="t" horiz-adv-x="681" d="M71 818.5q-3 19.5 25 29.5q78 29 118 93.5t69 158.5q8 29 29.5 27.5t21.5 -23.5v-137q0 -35 3 -51.5t28 -14.5l194 14q20 2 30.5 -10t10.5 -27.5t-10 -28.5t-31 -15l-194 -15q-25 -2 -28 -12t-3 -43v-533q0 -47 4 -88t18 -71t40 -46q21 -13 54 -12h17q86 6 143 68 q16 14 29.5 2t-0.5 -31q-82 -119 -207 -125q-16 -1 -31 -1q-87 1 -129 51q-49 60 -49 184v594q0 33 -3 43t-27 8l-99 -6q-20 -2 -23 17.5z" />
<glyph unicode="u" horiz-adv-x="1196" d="M89 769q-1 9 5 18.5t19 13.5q39 10 93 37.5t97 58.5q10 8 20.5 3t10.5 -21v-654q0 -95 60 -157q53 -54 137 -55q11 0 22 1q59 4 122.5 30t112.5 77q25 27 39.5 49.5t21.5 47t8 53t1 63.5v295q0 53 -3 84.5t-13.5 48t-32 21.5t-57.5 5q-27 0 -28 26t24 32q39 10 93 37.5 t97 58.5q10 6 20.5 2t10.5 -20v-684q0 -53 3 -83t13 -45.5t31.5 -19.5t58.5 -4q12 0 19.5 -7t8.5 -16.5t-5 -19.5t-19 -12q-39 -10 -93 -38t-97 -58q-10 -8 -20.5 -3t-10.5 21v104q0 16 -6 18.5t-14 -5.5q-63 -59 -140 -105.5t-176 -54.5q-16 -1 -31 -1q-62 -1 -107 19 q-56 24 -92 69.5t-52.5 107t-16.5 131.5v346q0 53 -3 84.5t-13 49t-31.5 22.5t-58.5 5q-12 0 -19.5 7.5t-8.5 16.5z" />
<glyph unicode="v" horiz-adv-x="1077" d="M11 808q-1 13 7.5 24.5t28.5 13.5l328 22q16 2 25.5 -8t9.5 -22.5t-9.5 -24.5t-29.5 -14q-12 -2 -27.5 -4t-28 -6.5t-20.5 -13.5t-4 -25q4 -27 17.5 -63t39.5 -95l193 -447q4 -8 9 -7t9 9l189 488q18 49 29 86t16 59q4 35 -15.5 39t-75.5 4q-18 0 -28 10.5t-10 22.5 t9 23.5t27 13.5l336 22q16 0 24.5 -10t6.5 -24.5t-12.5 -25.5t-30.5 -13q-66 -8 -95.5 -36t-43.5 -63l-316 -806q-10 -29 -27.5 -31t-29.5 26l-324 740q-23 47 -49 72.5t-90 27.5q-18 0 -27.5 11.5t-10.5 24.5z" />
<glyph unicode="w" horiz-adv-x="1611" d="M11 789.5q-1 13.5 7.5 24.5t28.5 13l332 23q16 2 24.5 -8.5t8.5 -22.5t-9.5 -24.5t-27.5 -14.5q-12 -2 -28.5 -4t-29 -6t-20.5 -14.5t-4 -26.5q4 -25 16.5 -62.5t34.5 -93.5l176 -436q4 -8 9.5 -7t9.5 9l219 568q-18 41 -46 63.5t-87 24.5q-18 0 -27.5 11t-10.5 24.5 t7 24.5t29 13l331 23q16 2 24.5 -8.5t8.5 -22.5t-9 -24.5t-28 -14.5q-12 -2 -28.5 -4t-28.5 -6t-20.5 -14.5t-4.5 -26.5q4 -27 16.5 -63.5t35.5 -92.5l176 -436q4 -8 9 -8t9 10l172 473q18 51 27.5 87t13.5 59q4 35 -17.5 39t-70.5 4q-18 0 -28.5 10t-10.5 22.5t9.5 23.5 t27.5 13l334 23q16 2 24.5 -9.5t6 -24.5t-12.5 -25.5t-30 -14.5q-66 -6 -95.5 -33.5t-44.5 -64.5l-295 -805q-10 -29 -28.5 -31t-28.5 27l-258 633l-260 -670q-10 -29 -28.5 -30t-28.5 26l-304 741q-20 47 -47.5 73t-91.5 28q-18 0 -27.5 11t-10.5 24.5z" />
<glyph unicode="x" horiz-adv-x="1060" d="M11 -62.5q1 13.5 10.5 25.5t27.5 17q72 10 116 42.5t97 106.5l205 287l-186 233q-27 33 -48.5 56.5t-44 38t-49 21.5t-61.5 7q-18 0 -27.5 11.5t-10.5 24.5t7 24.5t29 11.5l344 24q16 2 25.5 -8t9.5 -22.5t-9.5 -24.5t-29.5 -14q-27 -4 -44.5 -11.5t-17.5 -35.5 q0 -16 12.5 -36t28.5 -42l135 -170l136 190q16 23 28.5 44.5t12.5 37.5q0 29 -17.5 34t-44.5 5q-20 0 -29.5 10.5t-9.5 22.5t9.5 23.5t25.5 13.5l324 22q20 2 28 -8t7 -24.5t-10 -26.5t-27 -14q-35 -6 -62 -16.5t-50.5 -28t-45 -43t-45.5 -62.5l-176 -248l215 -270 q27 -33 49 -55.5t47 -37t53.5 -21.5t63.5 -7q18 0 27.5 -11t10.5 -24.5t-7.5 -25t-28.5 -11.5l-365 -26q-16 0 -25.5 9t-9.5 21.5t9.5 23.5t29.5 15q27 4 49.5 12.5t22.5 37.5q0 16 -12.5 34.5t-28.5 40.5l-164 207l-164 -229q-16 -25 -28.5 -45.5t-12.5 -36.5 q0 -29 22.5 -34t49.5 -5q20 0 29.5 -10.5t9.5 -22.5t-9 -23.5t-26 -13.5l-344 -24q-20 0 -28.5 10t-7.5 23.5z" />
<glyph unicode="y" horiz-adv-x="1107" d="M11 804q-1 13 7.5 24.5t28.5 13.5l328 22q16 0 25.5 -9t9.5 -22.5t-9.5 -24.5t-29.5 -13q-27 -4 -56.5 -11.5t-23.5 -40.5q4 -27 18.5 -63.5t38.5 -91.5l195 -438q4 -8 9 -8.5t9 8.5l215 483q23 47 33 84t14 59q4 35 -15 40q-14 4 -46 4q-13 0 -29 -1q-18 0 -28.5 10.5 t-10.5 22.5t9.5 23.5t27.5 13.5l336 24q16 0 24.5 -10t6.5 -24.5t-12.5 -26.5t-30.5 -14q-66 -6 -94.5 -34t-45.5 -65l-505 -1138q-16 -37 -61.5 -68t-96.5 -35q-8 -1 -15 -1q-32 0 -58 15q-32 17 -32 58q0 76 78 88q29 4 49.5 0t42.5 10q16 10 36 41t39.5 70t36.5 78t30 67 q8 16 11 32.5t3 33.5q0 16 -4 38.5t-14 43.5l-267 596q-23 47 -49 72.5t-90 27.5q-18 0 -27.5 11.5t-10.5 24.5z" />
<glyph unicode="z" horiz-adv-x="913" d="M42.5 -80q-9.5 10 12.5 39l561 782q4 8 15.5 25.5t9.5 28.5q-1 10 -33 10q-14 0 -33 -2l-184 -12q-47 -4 -78.5 -11.5t-55.5 -23t-42 -39t-35 -58.5q-6 -14 -19.5 -21t-23.5 -4t-17 14t-1 34l11 38.5t15.5 51.5t17.5 53.5t17 44.5q4 10 10.5 21.5t16.5 13.5q10 0 15 -3 t16 -15q12 -20 50 -20h10q46 3 105 7l406 27q35 4 37 -5t-12 -30l-562 -782q-10 -12 -18 -26.5t-12 -26t0 -18.5t22 -5l285 19q45 4 80 13t62.5 28.5t51 53.5t45.5 85q8 16 19.5 22.5t23 3t17.5 -15t4 -27.5q-8 -43 -18.5 -86t-18.5 -67q-10 -35 -25.5 -54.5t-48.5 -23.5 l-673 -47q-16 -2 -25.5 8z" />
<glyph unicode="{" horiz-adv-x="610" d="M164 588q0 16 26 22q145 31 146 213v486q0 123 38 185t115 83q45 10 73 11t28 -13t-12.5 -20.5t-30 -14.5t-36.5 -19.5t-34 -35.5q-14 -20 -22.5 -61.5t-8.5 -86.5v-487q0 -41 -3 -79t-16 -70.5t-43 -59.5t-83 -45q53 -12 83 -33.5t43 -51.5t16 -65.5t3 -78.5v-488 q0 -47 8.5 -87t22.5 -58q14 -23 33.5 -33t37 -16.5t30 -11.5t12.5 -17q0 -14 -27.5 -18.5t-73.5 2.5q-78 10 -115.5 69.5t-37.5 181.5v490q0 86 -37 134t-109 54q-16 0 -21 6.5t-5 12.5z" />
<glyph unicode="|" horiz-adv-x="724" d="M307 -260v1737q0 27 17.5 41t38 15t38 -10.5t17.5 -37.5v-1737q0 -27 -17.5 -41t-38 -15t-38 10t-17.5 38z" />
<glyph unicode="}" horiz-adv-x="610" d="M20 -373q0 12 12.5 19.5t30 15.5t37 21.5t33.5 37.5q14 18 22.5 60.5t8.5 89.5v487q0 43 2 80t16.5 68t44 56.5t82.5 45.5q-53 12 -82.5 34t-44 52.5t-16.5 68.5t-2 79v487q0 45 -8.5 84t-22.5 60q-14 20 -33.5 29t-37 14.5t-30 10.5t-12.5 19t28 17.5t73 -2.5 q78 -10 115.5 -67.5t37.5 -180.5v-486q0 -180 146 -192q16 0 21 -6.5t5 -12.5q0 -16 -26 -22q-72 -16 -109 -69.5t-37 -139.5v-489q0 -123 -37.5 -186.5t-115.5 -86.5q-45 -12 -73 -11t-28 15z" />
<glyph unicode="~" horiz-adv-x="1570" d="M185 446.5q-3 10.5 3 20.5q31 45 71 92t86 86t98.5 64.5t107.5 29.5q61 4 105 -8t77 -34.5t61.5 -48t62.5 -48t77 -35t104 -8.5t109.5 29.5t85.5 57.5t64.5 62.5t45.5 45.5q16 14 33.5 -2t7.5 -39q-33 -47 -71.5 -93.5t-84.5 -84t-98.5 -63.5t-107.5 -30q-70 -4 -117 8.5 t-82 34t-62.5 47t-58 47t-70.5 35t-97 9.5q-63 -4 -111.5 -29t-85.5 -56.5t-64.5 -63.5t-46.5 -46q-8 -6 -17 -5t-15.5 8t-9.5 17.5z" />
<glyph unicode="&#xa1;" d="M837 1244q-1 44 30.5 82t95.5 38q61 0 92.5 -38t31.5 -82t-31.5 -82t-92.5 -38t-93 38t-33 82zM842 -12q2 55 15 112.5t28.5 133t28 175t12.5 238.5q0 92 -2 147.5t-1 86t10 42t32 13.5q18 -2 26 -12.5t11.5 -39t2.5 -84t-1 -147.5q0 -158 12 -265t26.5 -182t26.5 -123 t10 -85q-2 -49 -30.5 -90t-87.5 -47q-18 0 -40 8t-40.5 24.5t-29.5 40t-9 54.5z" />
<glyph unicode="&#xa2;" d="M399 614q0 150 49.5 275t137.5 216t211 142t270 51q66 0 160 -16l65 152q8 20 24.5 24t32 -3t24.5 -22.5t1 -33.5l-57 -133q29 -6 53.5 -13.5t46.5 -13.5q10 -4 15.5 -4t13.5 -2q16 -4 20 -17.5t7 -23.5l18 -184q2 -16 -1 -27.5t-20 -11.5q-25 0 -34 28q-20 55 -54 101 q-33 45 -100 84l-479 -1125q51 -35 112.5 -55t133.5 -20q57 0 103 12t83 32.5t66.5 46t54.5 52.5q37 41 64.5 86t54.5 90q10 18 30 18q20 -2 23.5 -13t-2.5 -38q-10 -53 -25.5 -99t-30.5 -77q-10 -23 -18 -36t-14 -20t-13.5 -10t-17.5 -10q-92 -47 -187.5 -69.5 t-199.5 -22.5q-137 0 -252 51l-76 -180q-8 -18 -24.5 -22t-31.5 2t-24.5 20.5t-1.5 34.5l78 186q-141 90 -215 248t-74 350zM559 616q0 -139 43 -272t131 -225l467 1100q-72 23 -151 22q-135 0 -228.5 -52t-152 -139t-84 -200t-25.5 -234z" />
<glyph unicode="&#xa3;" d="M289 12q0 45 16.5 87t46 73t70.5 48.5t90 15.5t97 -16.5t86 -30t62.5 -29t24.5 -10.5q4 25 9 57q4 29 7 66.5t5 88.5q0 25 -1 57t-3 60l-4 66h-439v84h435l-5 266q-2 78 3.5 131t15.5 91t25.5 64.5t33.5 51.5q49 63 124 103t157 51.5t163 -9t142 -78.5q35 -35 31 -75 q-2 -63 -49 -74q-23 -4 -34.5 8t-23.5 33q-57 88 -149 116.5t-187 -12.5q-70 -29 -93 -100.5t-23 -185.5v-381h475v-84h-471v-72q0 -31 -1 -64.5t-3 -62.5q-4 -43 -11.5 -85t-15.5 -74.5t-15 -52.5l-6 -19l41 -28t102.5 -58.5t134.5 -55t136 -18.5q68 6 120 41t89 75 t58.5 75.5t29.5 46.5q18 23 37.5 15.5t1.5 -54.5q-4 -12 -27.5 -66.5t-72.5 -115t-127 -105.5t-195 -39q-43 2 -108.5 35t-126.5 69q-72 43 -150 99q-43 -61 -92 -111q-41 -41 -95.5 -74.5t-113.5 -33.5q-45 0 -86 11t-72.5 34.5t-50 61.5t-18.5 93zM373 16q0 -72 45 -103.5 t94 -31.5q45 0 87 29t74 64.5t41 49.5l27 44l-23 15q-24 15 -59.5 33.5t-75.5 34t-71 15.5q-63 -2 -101 -50t-38 -100z" />
<glyph unicode="&#xa4;" d="M236 1280l73 63l260 -251q90 72 196.5 107.5t216.5 32.5t217.5 -46t199.5 -127l278 274l72 -67l-289 -285q66 -88 95.5 -189.5t26.5 -203t-39.5 -198.5t-106.5 -175l295 -295l-70 -70l-297 293q-72 -59 -162 -97t-190.5 -46t-207 17.5t-210.5 97.5l-266 -260l-72 67 l262 258q-74 78 -118 179.5t-51 213t28 227t121 222.5zM444 610q0 -86 35 -179t102.5 -169t166 -124t225.5 -46q111 0 204 46t159.5 121t104.5 170t38 194q0 104 -40 196t-109.5 161t-163.5 109.5t-205 40.5q-104 0 -197.5 -40.5t-164.5 -111.5t-113 -165t-42 -203z" />
<glyph unicode="&#xa5;" d="M229 1341q0 16 9.5 20.5t17.5 4.5h473q8 0 17.5 -4t9.5 -21q0 -16 -11.5 -19t-15.5 -3h-41.5t-48.5 -3t-37 -14.5t-6 -31.5q10 -25 24.5 -58.5t28.5 -62.5l150 -283h370l113 238q4 10 13.5 31.5t18.5 46l18 49t16 39.5q6 18 -8.5 28.5t-38 14.5t-50 5t-43.5 1q-4 0 -15 3 t-11 19t9 20.5t17 4.5h408q8 0 17 -4.5t9 -20.5t-11 -19t-15 -3q-33 0 -62.5 -8t-62.5 -33q-20 -16 -39.5 -40t-37 -50.5t-32 -54t-24.5 -50.5l-103 -217h373v-63h-401l-135 -287q-6 -12 -12.5 -23.5t-12.5 -23.5h561v-63h-588q-14 -41 -14 -99v-225q0 -61 4 -97t21.5 -54.5 t50.5 -24.5t88 -8q4 0 15.5 -3.5t11.5 -19.5t-9.5 -20.5t-17.5 -4.5h-473q-8 0 -17.5 4.5t-9.5 20.5t11.5 19.5t15.5 3.5q55 2 88 8t50 24.5t21.5 54t4.5 97.5v252q0 37 -13 72h-583v63h557q-10 16 -18.5 33.5t-18.5 36.5l-139 264h-381v63h346l-115 219q-8 14 -22.5 41 t-33 55.5t-39 54.5t-40.5 42q-33 25 -62.5 33t-62.5 8q-4 0 -15.5 3t-11.5 19zM834 803l161 -305l144 305h-305z" />
<glyph unicode="&#xa7;" d="M192.5 653.5q-14.5 61.5 14.5 126.5q16 35 40.5 54.5t50.5 28.5t49.5 11.5t37.5 2.5q-12 12 -35.5 38.5t-46 62.5t-42 81t-25.5 98q-8 68 7 118t48 84t79 51t99 20q70 2 127 -27t89 -67t36 -76.5t-29 -57.5q-29 -14 -50 -5t-36.5 29.5t-24 47t-8.5 47.5q0 18 -17 32.5 t-43 21.5t-56.5 4t-58 -19.5t-46 -49t-18.5 -85.5q-2 -59 31.5 -116.5t84 -114t108.5 -113t107.5 -115.5t79 -122.5t21.5 -131.5q-4 -41 -22.5 -67.5t-43 -43t-51 -22.5t-47.5 -4q10 -12 41 -51t55.5 -97.5t28.5 -131t-39 -150.5q-33 -59 -88 -88t-117.5 -30t-124 23.5 t-104.5 73.5q-31 35 -36 67t7.5 53.5t36 30.5t49.5 -3q25 -10 35 -29.5t12 -40t0 -40t-2 -32.5q4 -10 28 -22t56.5 -15.5t67.5 7t63 45.5q29 37 33 85t-12.5 100t-49 101.5t-77.5 87.5q-57 49 -115.5 103.5t-100.5 112t-56.5 119zM286 747.5q-3 -38.5 14 -85t48 -82.5 q74 -86 136.5 -125t101.5 -33q55 8 73.5 35.5t15.5 62.5t-23 71.5t-38 61.5q-47 59 -105 105.5t-103 56.5q-59 14 -88 -7.5t-32 -60z" />
<glyph unicode="&#xa8;" d="M430 1427q0 43 29.5 74t72.5 35t73 -23.5t30 -70.5t-30 -75t-73 -36t-72.5 24.5t-29.5 71.5zM1290 1487q0 43 30 74.5t73 35.5t72.5 -24.5t29.5 -71.5t-29.5 -73.5t-72.5 -34.5t-73 23.5t-30 70.5z" />
<glyph unicode="&#xa9;" horiz-adv-x="724" d="M82 1264q0 92 56.5 164.5t140.5 107.5q18 8 28 -10.5t-8 -30.5q-55 -37 -92 -85t-37 -79q0 -41 43 -41t72.5 -29.5t29.5 -72.5t-29.5 -73t-72.5 -30q-57 0 -94 50.5t-37 128.5zM410 1264q0 92 56 164.5t140 107.5q18 8 28.5 -10.5t-7.5 -30.5q-55 -37 -92 -85t-37 -79 q0 -41 43 -41t72.5 -29.5t29.5 -72.5t-29.5 -73t-72.5 -30q-57 0 -94 50.5t-37 128.5z" />
<glyph unicode="&#xaa;" d="M483 2v59h951v-59h-951zM525 715q32 96 119 165.5t220 112.5t299 64q0 80 -1 146.5t-20.5 114.5t-69.5 72.5t-148 20.5q-162 -25 -168 -129q-4 -43 -32 -72.5t-83 -23.5q-29 2 -50.5 21.5t-27.5 47t5.5 61.5t47.5 64q53 37 123 57.5t143.5 26.5t144.5 -4t127 -34.5 t91 -64.5t35 -95v-6v-111v-161v-200.5v-232.5q0 -66 28.5 -91.5t69.5 -10.5q27 16 38.5 12t-15.5 -53q-23 -31 -56.5 -50.5t-68.5 -13.5t-65.5 43t-45.5 117q-88 -72 -183 -112t-181 -45t-157 29t-112 114q-39 125 -7 221zM633 573q6 -70 58 -107.5t128 -40.5t166 31.5 t174 112.5v430q-102 -10 -199.5 -37.5t-173 -80t-118.5 -128t-35 -180.5z" />
<glyph unicode="&#xab;" d="M365 602l1210 823l47 -53l-1120 -770l1120 -768l-47 -53zM743 602l1014 694l45 -55l-921 -639l919 -635l-43 -59z" />
<glyph unicode="&#xac;" d="M61 221v90h1807v-653h-113v563h-1694z" />
<glyph unicode="&#xad;" horiz-adv-x="1024" d="M264 561v98h496v-98h-496z" />
<glyph unicode="&#xae;" d="M18 2v1260q0 162 90.5 229.5t241.5 67.5h1225q152 0 242 -68t90 -229v-1260q0 -147 -73 -237.5t-230 -90.5h-1282q-158 0 -231 90.5t-73 237.5zM86 -18q0 -111 59.5 -175.5t171.5 -64.5h1291q113 0 172 64.5t59 175.5v1273q0 117 -60.5 176.5t-176.5 59.5h-1278 q-117 0 -177.5 -59.5t-60.5 -176.5v-1273zM576 70.5q-3 13.5 20 35.5q106 104 206.5 203t194.5 213q86 104 117 195.5t31 138.5q0 131 -67.5 189.5t-180.5 58.5q-68 0 -122 -31t-101 -115q-6 -8 -15.5 -19t-25.5 -7q-6 0 -11.5 11t3.5 30q27 63 67.5 105t84.5 67.5t87 37 t76 11.5q61 0 121.5 -17.5t109 -54.5t78 -92t29.5 -131q0 -53 -18.5 -104.5t-47 -99.5t-63.5 -91t-70 -80l-282 -311q-37 -41 -27 -47t57 -6h277q35 0 65.5 4t59.5 20q29 14 48 51t30 62q0 6 7 15.5t23 9.5q12 -4 11.5 -17.5t-0.5 -17.5l-64 -209q-2 -4 -7 -12.5t-22 -8.5 h-639q-37 0 -40 13.5z" />
<glyph unicode="&#xb0;" horiz-adv-x="921" d="M215 1264q0 51 19.5 96t52 79t78 53t94.5 19h10q51 0 95 -19t76 -53t49.5 -79t17.5 -96t-17.5 -96.5t-48.5 -78t-76 -52t-100 -19.5q-53 0 -98 18.5t-79 52t-53.5 77.5t-19.5 98zM301 1264q0 -68 45 -116t115 -48q72 0 118 45t46 119q0 61 -44 112t-122 51 q-35 0 -63.5 -14t-49 -36.5t-33 -52.5t-12.5 -60z" />
<glyph unicode="&#xb1;" horiz-adv-x="1454" d="M131 8v98h1192v-98h-1192zM166 680v96h508v475h110v-475h508v-96h-508v-496h-110v496h-508z" />
<glyph unicode="&#xb2;" horiz-adv-x="1024" d="M322 877l102 102t96 104q45 53 59.5 98.5t14.5 67.5q0 66 -34 94.5t-89 28.5q-35 0 -61.5 -15.5t-49.5 -56.5q-2 -4 -6 -10t-14 -4q-14 4 -6 23q33 63 80 85.5t80 22.5q31 0 60.5 -8t53 -26.5t37.5 -46t14 -66.5q0 -53 -31.5 -100.5t-66.5 -86.5l-141 -153 q-16 -18 -11 -22.5t27 -4.5h137q18 0 33 2t29 10q16 10 25.5 26.5t15.5 31.5q2 2 4 7t10 5q4 -2 5 -8t1 -10l-32 -105q-2 -4 -4.5 -7t-10.5 -3h-317q-39 0 -10 25z" />
<glyph unicode="&#xb3;" horiz-adv-x="1024" d="M336 815q0 14 11 22.5t22 8.5q25 0 41 -27q8 -14 18 -21t29 -7q31 0 61.5 15t56 40.5t42 57.5t16.5 65q0 57 -25.5 102t-91.5 45q-29 0 -53.5 -12t-52.5 -29q-18 -12 -27 2q-4 12 10 21q51 25 81 40t54 31q33 23 47.5 47.5t14.5 67.5q0 49 -29 66.5t-61 17.5 q-35 0 -61.5 -18.5t-45.5 -44.5q-2 -4 -6 -10.5t-12 -4.5q-12 4 -6 21q25 47 65.5 71.5t81.5 24.5q51 0 95 -24.5t44 -82.5q0 -49 -21.5 -77.5t-62.5 -57.5q-23 -12 0 -14q55 -6 91 -40.5t36 -100.5q0 -94 -77 -166q-41 -35 -92.5 -59.5t-106.5 -24.5q-27 0 -56.5 11 t-29.5 44z" />
<glyph unicode="&#xb4;" horiz-adv-x="1228" d="M383 1235l143 278h320l-436 -292z" />
<glyph unicode="&#xb6;" d="M299 1092q14 88 43 160.5t88 123.5t159.5 79t260.5 28h211v-1766h-127v945q-47 -2 -110.5 -4.5t-132 7t-136.5 33t-123 71.5t-91 127t-42 196zM428 1081q6 -104 46 -166.5t107.5 -93t158 -37t194.5 -0.5v576q-80 2 -165 2t-156.5 -24.5t-122 -84t-62.5 -172.5zM1319 -283 v1766h125v-1766h-125z" />
<glyph unicode="&#xb7;" horiz-adv-x="1024" d="M410 598q0 43 29.5 74t72.5 35t72.5 -25t29.5 -72t-29.5 -73.5t-72.5 -34.5t-72.5 24.5t-29.5 71.5z" />
<glyph unicode="&#xb8;" horiz-adv-x="1228" d="M424 -285q2 33 19.5 30t56.5 -3q72 0 110.5 31.5t34.5 72.5q0 41 -30.5 70t-108.5 41l147 123h62q25 0 17.5 -16.5t-17.5 -34.5q0 -6 15 -16.5t32.5 -26t31 -40t11.5 -57.5q0 -41 -19.5 -76.5t-54.5 -64.5t-81 -46t-99 -17q-63 0 -95 9t-32 21z" />
<glyph unicode="&#xb9;" horiz-adv-x="1024" d="M347.5 1334q-1.5 9 10.5 14q8 2 25.5 6t41.5 11t48.5 18.5t46.5 27.5q10 6 15.5 2t5.5 -14v-430q0 -35 2 -54.5t10 -28.5t24.5 -12.5t47.5 -3.5q2 0 6 -2q6 -6 6 -8q0 -6 -4 -9t-8 -3h-236q-14 0 -14 12q0 8 6 9t8 1q29 0 45.5 3.5t24.5 12.5t10 28.5t2 54.5v299 q0 41 -16.5 49t-51.5 8h-34q-20 0 -21.5 9z" />
<glyph unicode="&#xba;" d="M514 2v72h907v-72h-907zM518 920.5q0 101.5 27.5 200t83 174t138.5 122.5t194 47t193.5 -47t137 -122.5t82 -174t27.5 -200t-27.5 -199.5t-82 -174t-137 -123t-193.5 -47t-194 47t-138.5 123t-83 174t-27.5 199.5zM639 921q0 -130 36 -242t108 -185.5t178 -73.5 t176.5 73.5t105.5 185.5t35 242t-35 241.5t-105.5 185t-176.5 73.5t-178 -73.5t-108 -185t-36 -241.5z" />
<glyph unicode="&#xbb;" d="M90 1241l45 55l1014 -694l-1014 -694l-43 59l920 635zM270 -166l1121 768l-1121 770l47 53l1211 -823l-1211 -821z" />
<glyph unicode="&#xbc;" horiz-adv-x="1536" d="M127 594v55h1284v-55h-1284zM479 -46q-2 9 17 36l391 545q6 10 12 15t16 5h13q23 0 18.5 -10t-8.5 -15l-363 -503q-18 -25 -16 -30t35 -5h209q23 0 27 7t4 24v227q0 20 12 24l45 19q10 4 15 -5t5 -18v-247q0 -16 4.5 -23.5t28.5 -7.5h62q10 0 14 -6q4 -13 0 -33 q-2 -8 -14 -8h-62q-25 0 -29 -6.5t-4 -22.5v-68q0 -35 1 -56t9.5 -33.5t24 -16.5t43.5 -4q2 0 9.5 -1t7.5 -11t-6.5 -12.5t-10.5 -2.5h-237q-2 0 -7.5 2t-5.5 13q0 6 6 10q2 2 7 2q31 0 47 4t24 16.5t9.5 34t1.5 55.5v68q0 16 -4.5 22.5t-26.5 6.5h-287q-35 0 -37 9z M574 1385.5q-1 13.5 16 17.5q10 2 34.5 8t55.5 16.5t64.5 24.5t62.5 35q12 10 19.5 4t7.5 -21v-573q0 -47 3 -72.5t13 -38t32.5 -15.5t61.5 -3q2 0 9.5 -2t7.5 -12t-6.5 -13.5t-10.5 -3.5h-313q-6 0 -12.5 3t-6.5 14q0 10 8.5 12t10.5 2q39 0 60.5 3t32.5 15.5t14 38t3 72.5 v399q0 55 -22.5 65.5t-67.5 10.5h-47q-29 0 -30 13.5z" />
<glyph unicode="&#xbd;" horiz-adv-x="1536" d="M127 594v55h1284v-55h-1284zM529 -236.5q-3 9.5 14 23.5q72 70 138.5 135.5t127.5 140.5q59 70 78.5 130.5t19.5 91.5q0 88 -45 126t-119 38q-45 0 -80.5 -20.5t-66.5 -76.5q-4 -4 -10 -13t-19 -5q-4 2 -8 9t2 19q20 43 48 71t56.5 44.5t56.5 23.5t50 7q41 0 81 -11.5 t71.5 -36t51 -61.5t19.5 -88q0 -72 -42 -134t-89 -114l-188 -204q-25 -27 -17.5 -32t37.5 -5h185q23 0 43 3t39 13q23 12 34 36t19 40q2 4 5 11t13 5q8 -2 9 -9t-1 -13l-43 -139q-4 -14 -18 -15h-424q-25 0 -28 9.5zM574 1385.5q-1 13.5 16 17.5q10 2 34.5 8t55.5 16.5 t64.5 24.5t62.5 35q12 10 19.5 4t7.5 -21v-573q0 -47 3 -72.5t13 -38t32.5 -15.5t61.5 -3q2 0 9.5 -2t7.5 -12t-6.5 -13.5t-10.5 -3.5h-313q-6 0 -12.5 3t-6.5 14q0 10 8.5 12t10.5 2q39 0 60.5 3t32.5 15.5t14 38t3 72.5v399q0 55 -22.5 65.5t-67.5 10.5h-47 q-29 0 -30 13.5z" />
<glyph unicode="&#xbe;" horiz-adv-x="1536" d="M127 594v55h1284v-55h-1284zM479 -46q-2 9 17 36l391 545q6 10 12 15t16 5h13q23 0 18.5 -10t-8.5 -15l-363 -503q-18 -25 -16 -30t35 -5h209q23 0 27 7t4 24v227q0 20 12 24l45 19q10 4 15 -5t5 -18v-247q0 -16 4.5 -23.5t28.5 -7.5h62q10 0 14 -6q4 -13 0 -33 q-2 -8 -14 -8h-62q-25 0 -29 -6.5t-4 -22.5v-68q0 -35 1 -56t9.5 -33.5t24 -16.5t43.5 -4q2 0 9.5 -1t7.5 -11t-6.5 -12.5t-10.5 -2.5h-237q-2 0 -7.5 2t-5.5 13q0 6 6 10q2 2 7 2q31 0 47 4t24 16.5t9.5 34t1.5 55.5v68q0 16 -4.5 22.5t-26.5 6.5h-287q-35 0 -37 9z M541 791q0 16 14 27t29 11q33 0 55 -34q10 -18 24.5 -28.5t38.5 -10.5q39 0 81 20.5t76 54t55.5 76.5t21.5 86q0 39 -8 75t-25.5 63.5t-47.5 44t-73 16.5q-41 0 -73.5 -16.5t-69.5 -38.5q-12 -8 -21.5 -6t-13.5 8q-8 16 14 26q66 35 106 54.5t75 42.5q41 29 61.5 61.5 t20.5 91.5q0 66 -39 89.5t-82 23.5q-47 0 -83 -25.5t-59 -60.5q-4 -4 -10 -13.5t-16 -5.5q-4 2 -7 9.5t1 17.5q33 63 88 96t108 33q33 0 67 -8t59.5 -25.5t42 -44t16.5 -65.5q0 -66 -28 -104t-85 -75q-10 -6 -13 -12t13 -8q76 -8 123 -54t47 -134q0 -66 -27.5 -121.5 t-76.5 -100.5q-53 -47 -122 -78.5t-143 -31.5q-16 0 -36.5 3t-38 12t-28.5 22.5t-11 36.5z" />
<glyph unicode="&#xbf;" d="M659 287q2 82 25 144.5t69 108.5t118.5 76.5t175.5 49.5v243q0 12 10 18.5t22.5 6.5t22.5 -7t10 -22v-373q-43 -4 -101.5 -17t-111.5 -48t-91 -99.5t-40 -170.5q0 -41 13.5 -80t38 -70t59 -50.5t77.5 -21.5q33 -2 62 15.5t54.5 38t52 38t57.5 17.5q37 0 60.5 -23.5 t23.5 -58.5q0 -18 -11.5 -40.5t-36 -42t-61.5 -32t-86 -10.5q-61 2 -134 21.5t-135.5 65.5t-103.5 124t-39 199zM956 1268q0 45 32 81.5t93 36.5q63 0 95 -36.5t32 -81.5t-32 -82t-95 -37q-61 0 -93 37t-32 82z" />
<glyph unicode="&#xc6;" d="M4 0v61q39 0 105.5 45.5t117.5 131.5l625 1042q12 31 11 50.5t-18.5 29.5t-55 14t-101.5 4v47h1084l126 -319l-34 -29q-31 43 -75 93.5t-99.5 94.5t-119 74.5t-132.5 32.5q-61 2 -121 2t-107 -12t-76.5 -45t-29.5 -96v-447h213q115 10 174 62.5t76 173.5h43v-551h-43 q-6 43 -19.5 86t-42 78.5t-77 58.5t-121.5 23h-203v-502q0 -53 9 -83t29.5 -46.5t52.5 -20.5t75 -4q127 0 213 13.5t152.5 49t125 99t129.5 166.5l33 -37l-143 -340h-1020v51q43 0 84 4t71.5 19.5t49 48.5t18.5 90v309h-506l-176 -289q-25 -43 -21.5 -74.5t28 -53t65.5 -35 t90 -17.5v-53h-459zM522 586h461v776z" />
<glyph unicode="&#xd0;" d="M227 696v78h318v461q0 33 -5 59.5t-29 45t-70 28.5t-126 10v54h594q158 0 286 -44.5t219 -129t144.5 -209.5t59.5 -289q2 -68 -8.5 -150t-39 -166t-79.5 -162.5t-130 -140t-188.5 -98.5t-254.5 -37h-599v57q37 2 77 7.5t73 17.5t54.5 34.5t21.5 63.5v510h-318zM666 207 q0 -59 24.5 -90t64.5 -45.5t93 -15.5t113 3q111 6 209 41t170.5 114t114.5 211t42 333q0 35 -3 92t-18.5 122.5t-46 132t-86 124t-138.5 96.5t-204 47q-35 2 -91 5t-110.5 -8t-94 -43t-39.5 -99v-453h307v-78h-307v-489z" />
<glyph unicode="&#xd7;" horiz-adv-x="1454" d="M195 1049l79 79l449 -450l432 432l70 -72l-430 -430l465 -465l-80 -80l-465 465l-430 -430l-72 70l432 432z" />
<glyph unicode="&#xd8;" d="M211 -47l205 217q-109 123 -158 267.5t-46 288.5t57.5 277.5t151.5 236.5t234.5 163.5t309.5 58.5q80 0 152.5 -17.5t136 -43t113.5 -57t83 -62.5l201 213l51 -43l-199 -217q92 -100 140.5 -231.5t50.5 -270.5t-42 -274t-135.5 -242.5t-230.5 -175.5t-328 -72 q-84 -2 -159.5 13.5t-138 39t-112.5 51t-81 50.5l-211 -211zM336 853q-8 -77 1 -169t47 -195.5t120 -214.5l874 924q-53 63 -137 111.5t-183.5 71t-206 16.5t-201.5 -51.5t-174 -133.5t-122 -227q-10 -55 -18 -132zM549 213q61 -72 151.5 -116t191.5 -59t205.5 1t195.5 68.5 t160.5 140.5t100.5 215q12 53 17.5 137t-8 178t-48 189.5t-102.5 169.5z" />
<glyph unicode="&#xde;" d="M365 1400q0 9 12 17t41 8h551q18 0 26.5 -7t8.5 -16t-10.5 -16.5t-28.5 -7.5q-66 2 -108 -9t-66.5 -32.5t-33.5 -50.5t-9 -61v-133h389q139 0 235 -56.5t148.5 -142.5t56.5 -184.5t-38 -184.5t-134.5 -142t-235.5 -56h-421v-125q0 -35 9 -63.5t32.5 -48t64.5 -30 t104 -8.5q16 0 24.5 -7t8.5 -17.5t-9 -18.5t-28 -8h-542q-18 0 -28.5 7t-10.5 16.5t10 16.5t29 7q74 0 115.5 10.5t64 31t29 52t6.5 74.5v993q2 25 -2 51.5t-25.5 50t-64.5 41t-117 21.5q-25 2 -39 10.5t-14 17.5zM748 381h387q111 0 183.5 48t107 122t31.5 158t-41 157.5 t-111.5 121.5t-182.5 48h-374v-655z" />
<glyph unicode="&#xdf;" d="M375 8v35q55 8 92 17.5t59.5 25.5t32.5 42t10 69v843q0 94 18.5 175t62.5 141.5t117 94.5t181 34q86 0 162 -24.5t132 -69.5t88 -109.5t32 -144.5q0 -84 -16.5 -141.5t-47 -96.5t-74.5 -62.5t-100 -39.5q147 -37 229.5 -133.5t82.5 -274.5q0 -104 -29 -183t-78 -133.5 t-117.5 -82t-148.5 -27.5q-205 0 -205 148q0 37 22.5 56t50 19t49 -17t21.5 -54q0 -47 12.5 -73t71.5 -24q106 4 166 95.5t60 271.5q0 80 -19.5 148.5t-66.5 118.5t-124 83t-194 43v37q80 6 143.5 22.5t106.5 52.5t65.5 91t22.5 137q0 61 -19.5 117.5t-57.5 99.5t-93 69 t-127 26q-86 0 -139 -33t-83 -87.5t-40 -123t-10 -142.5v-841q0 -49 10 -78t29.5 -45.5t50.5 -24.5t74 -14v-33h-465z" />
<glyph unicode="&#xe6;" d="M244 195q0 55 35.5 113.5t111.5 110.5t192.5 95t278.5 68v114q0 49 -7 89t-28.5 70t-60.5 46.5t-100 16.5q-66 0 -108 -10.5t-66.5 -28t-33.5 -41t-7 -47.5q4 -51 -27 -72t-74 -21q-33 0 -49 25t-16 61q0 31 26.5 62t72.5 55.5t110.5 40.5t138.5 16q141 0 231 -42 t107 -107q23 27 52.5 54.5t67 50t83 37t96.5 14.5q98 0 175 -33t131 -90.5t82 -135t28 -167.5h-717q0 -133 21.5 -225.5t64.5 -148.5t106.5 -81t147.5 -25q92 0 180 34t147 108l21 -19q-18 -33 -57 -68.5t-89.5 -64.5t-107.5 -48t-115 -19q-74 0 -134 18t-108.5 50t-85 75 t-63.5 90q-23 -37 -61.5 -79t-92 -75.5t-117 -55t-134.5 -21.5q-106 2 -177 60t-71 151zM365 215q0 -31 11 -62.5t34.5 -56t59.5 -40t85 -13.5q45 0 91 17.5t88 45t76 63.5t52 73v297q-145 -25 -241.5 -63t-152.5 -82t-79.5 -90t-23.5 -89zM969 584h594q0 55 -19.5 114.5 t-57.5 108.5t-92.5 80t-123.5 31q-72 0 -127.5 -31t-94 -79t-59 -107.5t-20.5 -116.5z" />
<glyph unicode="&#xf0;" d="M514 451q0 74 25.5 148.5t78 135t129 99t181.5 38.5q104 0 183 -44t124 -103q-10 47 -38 109.5t-61.5 124t-69.5 114.5t-62 80l-371 -178l-31 47l367 176q-59 68 -138 127t-147 96l23 29q45 -23 93 -50.5t93 -56t82 -58.5t59 -54l266 129l33 -49l-252 -121 q320 -363 320 -721q0 -98 -37 -186t-100.5 -154t-145.5 -103.5t-170 -37.5q-84 0 -161.5 26.5t-138 84t-97.5 144.5t-37 208zM635 430q0 -74 19.5 -145.5t59.5 -128t99 -91t139 -34.5t138.5 34.5t98.5 91t59.5 128t19.5 145.5q0 76 -19.5 147.5t-59.5 127t-100.5 88 t-140.5 32.5q-78 0 -136 -32.5t-98 -88t-59.5 -127t-19.5 -147.5z" />
<glyph unicode="&#xf7;" horiz-adv-x="1454" d="M164 557v100h1126v-100h-1126zM627 171q0 38 25.5 69.5t74.5 31.5q51 0 76.5 -31.5t25.5 -69.5t-25.5 -69.5t-76.5 -31.5q-49 0 -74.5 31.5t-25.5 69.5zM627 1024q0 39 25.5 70.5t74.5 31.5q51 0 76.5 -31.5t25.5 -70.5t-25.5 -70.5t-76.5 -31.5q-49 0 -74.5 31.5 t-25.5 70.5z" />
<glyph unicode="&#xf8;" d="M451 -18l135 131q-57 74 -88 159.5t-31 167.5t28.5 168t87 157t149.5 115t216 44q68 0 123 -12.5t98 -30t73 -38t46 -38.5l131 127l43 -43l-131 -131q59 -70 87 -155t28 -163q0 -82 -26.5 -167t-87 -154.5t-155 -113.5t-229.5 -44q-59 0 -109.5 11.5t-90 27.5t-69.5 35.5 t-48 38.5l-133 -127zM590 440q0 -76 19.5 -148.5t43.5 -111.5l576 565q-45 57 -108.5 96.5t-176.5 41.5q-90 2 -156.5 -38t-110.5 -103.5t-65.5 -142.5t-21.5 -159zM686 125q41 -57 106.5 -92t151.5 -35q106 0 178 40t116 103.5t63.5 142t19.5 156.5q0 31 -4 66t-12.5 68.5 t-19.5 64.5t-25 53z" />
<glyph unicode="&#xfe;" d="M430 1298v35l275 92v-637q27 31 59.5 62t70 55.5t83 40t94.5 15.5q119 0 200.5 -42t133 -110t74 -151.5t22.5 -165.5q0 -117 -31 -210.5t-87 -158t-137 -99t-181 -34.5q-94 0 -163 31.5t-138 111.5v-211q0 -53 34.5 -78.5t122.5 -38.5v-41h-416v41q80 14 115 37t35 90 v1242q0 37 -3 61.5t-18.5 38.5t-49 19t-95.5 5zM705 242q33 -98 102.5 -150.5t191.5 -52.5q139 0 225.5 114.5t84.5 325.5q0 80 -16.5 155t-54.5 133t-100.5 94t-154.5 36q-53 0 -96 -15.5t-78 -40t-60.5 -56t-43.5 -62.5v-481z" />
<glyph unicode="&#x152;" d="M12 694q8 182 73 342t178.5 267.5t272 147.5t353.5 -21h870l123 -281q8 -20 6 -33.5t-10 -18.5t-19.5 0t-21.5 19q-35 49 -85 104.5t-123 96.5t-171 59.5t-229 -8.5q-70 -14 -93.5 -53t-23.5 -101v-446q113 -4 193.5 3t134 29.5t82 64.5t41.5 110q0 20 8 31.5t17 10.5 t17.5 -12.5t8.5 -31.5v-469q0 -47 -24.5 -48t-33.5 38q-10 51 -26.5 95t-62.5 73.5t-130 43t-225 3.5v-516q0 -33 13.5 -64t50 -52.5t100 -30.5t162.5 3q84 10 149.5 36t116.5 61.5t91 76.5t73 82q29 45 47 37t-2 -59l-119 -289h-915q-197 -45 -360 -7t-277.5 136 t-175 246.5t-54.5 324.5zM133 698q-6 -180 38 -307t117.5 -209t167 -120.5t187.5 -43t179.5 23.5t140.5 77v1132q0 39 -35 75t-91.5 59.5t-129 29.5t-149.5 -11.5t-150.5 -64.5t-133 -131t-97.5 -210t-44 -300z" />
<glyph unicode="&#x153;" d="M197 457q0 88 30.5 178t88 161.5t138.5 118t179 46.5q117 0 205 -49.5t157 -143.5q18 25 47 61.5t69 69.5t92 56.5t118 23.5q104 0 182 -38t131.5 -101.5t81 -146.5t27.5 -171h-688q0 -80 17.5 -164t57 -152.5t103 -112.5t156.5 -44q88 0 163.5 32t149.5 114l29 -21 q-84 -121 -191.5 -160t-212 -21.5t-190.5 81t-125 149.5q-61 -129 -161.5 -184t-217.5 -55q-109 0 -191 45t-136 114.5t-81.5 152.5t-27.5 161zM326 457q0 -74 18 -150t55 -137t94.5 -100t137.5 -39q86 0 147.5 39t100.5 100t57 137t18 150q0 86 -18 167t-57 144t-100.5 102 t-147.5 39q-72 0 -128.5 -39t-95 -102t-60 -144t-21.5 -167zM1055 584h555q-2 61 -23.5 122.5t-56.5 108.5t-84 77t-107 30q-78 0 -131 -33t-88 -82t-50 -108.5t-15 -114.5z" />
<glyph unicode="&#x2dc;" horiz-adv-x="1228" d="M147 1266q6 45 26 91t53.5 81t79.5 56.5t106 18.5q82 -2 145.5 -25.5t118.5 -49t110.5 -47t122.5 -21.5q57 0 89 23.5t55 70.5l28 -12q-4 -25 -17 -68t-44 -85t-81 -72.5t-128 -28.5q-84 2 -149.5 25.5t-123 51.5t-109.5 50.5t-107 26.5q-12 0 -33 -4.5t-41.5 -14.5 t-39 -28.5t-30.5 -44.5z" />
<glyph unicode="&#x2000;" horiz-adv-x="808" />
<glyph unicode="&#x2001;" horiz-adv-x="1616" />
<glyph unicode="&#x2002;" horiz-adv-x="808" />
<glyph unicode="&#x2003;" horiz-adv-x="1616" />
<glyph unicode="&#x2004;" horiz-adv-x="538" />
<glyph unicode="&#x2005;" horiz-adv-x="404" />
<glyph unicode="&#x2006;" horiz-adv-x="269" />
<glyph unicode="&#x2007;" horiz-adv-x="269" />
<glyph unicode="&#x2008;" horiz-adv-x="202" />
<glyph unicode="&#x2009;" horiz-adv-x="323" />
<glyph unicode="&#x200a;" horiz-adv-x="89" />
<glyph unicode="&#x2010;" horiz-adv-x="1433" d="M184 526v103l1065 73v-102z" />
<glyph unicode="&#x2011;" horiz-adv-x="1433" d="M184 526v103l1065 73v-102z" />
<glyph unicode="&#x2012;" horiz-adv-x="1433" d="M184 526v103l1065 73v-102z" />
<glyph unicode="&#x2013;" horiz-adv-x="1392" d="M184 526v103l1024 73v-102z" />
<glyph unicode="&#x2014;" d="M8 563v99h1913v-99h-1913z" />
<glyph unicode="&#x2018;" horiz-adv-x="397" d="M82 1255q0 92 56.5 169t140.5 118q18 8 28 -9t-8 -32q-55 -41 -92 -91t-37 -81q0 -41 43 -39q43 4 72.5 -23.5t29.5 -70.5t-29.5 -74.5t-72.5 -36.5q-57 -4 -94 44.5t-37 125.5z" />
<glyph unicode="&#x2019;" horiz-adv-x="397" d="M82 1425q0 43 29.5 75t72.5 36q57 4 94 -44t37 -126q0 -92 -56 -169t-140 -118q-18 -8 -28.5 9.5t7.5 31.5q55 41 92 91.5t37 80.5q0 41 -43 39q-43 -4 -72.5 23.5t-29.5 70.5z" />
<glyph unicode="&#x201c;" horiz-adv-x="724" d="M82 1243q0 92 56.5 169t140.5 118q18 8 28 -8.5t-8 -30.5q-55 -41 -92 -92t-37 -82q0 -39 43 -37q43 4 72.5 -24.5t29.5 -71.5t-29.5 -74t-72.5 -35q-57 -4 -94 43t-37 125zM410 1268q0 92 56 167.5t140 116.5q18 8 28.5 -8t-7.5 -31q-55 -41 -92 -91t-37 -81 q0 -41 43 -38q43 4 72.5 -24t29.5 -71t-29.5 -74.5t-72.5 -35.5q-57 -4 -94 44t-37 126z" />
<glyph unicode="&#x201d;" horiz-adv-x="724" d="M82 1413q0 43 29.5 75t72.5 36q57 4 94 -44t37 -126q0 -92 -56 -168t-140 -117q-10 -4 -17.5 -1t-11.5 9t-3 15.5t11 15.5q55 41 92 91t37 81q0 41 -43 39q-43 -4 -72.5 23.5t-29.5 70.5zM410 1438q0 43 29.5 73.5t72.5 34.5q57 4 94 -43t37 -125q0 -92 -56.5 -168.5 t-140.5 -117.5q-10 -4 -17 -1t-11 9t-3 15t11 15q55 41 92 92.5t37 82.5q0 39 -43 36q-43 -4 -72.5 25t-29.5 72z" />
<glyph unicode="&#x2022;" d="M743 602q0 45 17.5 85t48.5 70.5t71 48t85 17.5t85 -17.5t70.5 -48t48 -70.5t17.5 -85t-17.5 -85t-48 -69.5t-70.5 -47t-85 -17.5t-85 17.5t-71 47t-48.5 69.5t-17.5 85z" />
<glyph unicode="&#x2026;" d="M246 555q0 43 29.5 74t72.5 35t73 -24t30 -71t-30 -74.5t-73 -35.5t-72.5 24.5t-29.5 71.5zM860 598q0 43 30 74t73 35t72.5 -25t29.5 -72t-29.5 -73.5t-72.5 -34.5t-73 24.5t-30 71.5zM1475 639q0 43 29.5 75t72.5 36t72.5 -25t29.5 -72t-29.5 -73.5t-72.5 -34.5 t-72.5 23.5t-29.5 70.5z" />
<glyph unicode="&#x202f;" horiz-adv-x="323" />
<glyph unicode="&#x2039;" d="M401 602l1401 854v-72l-1263 -782l1263 -780v-74z" />
<glyph unicode="&#x203a;" d="M86 -178l1264 780l-1264 782v72l1401 -854l-1401 -854v74z" />
<glyph unicode="&#x205f;" horiz-adv-x="404" />
<glyph unicode="&#x20ac;" d="M18 2v1260q0 162 90.5 229.5t241.5 67.5h1225q152 0 242 -68t90 -229v-1260q0 -147 -73 -237.5t-230 -90.5h-1282q-158 0 -231 90.5t-73 237.5zM86 -18q0 -111 59.5 -175.5t171.5 -64.5h1291q113 0 172 64.5t59 175.5v1273q0 117 -60.5 176.5t-176.5 59.5h-1278 q-117 0 -177.5 -59.5t-60.5 -176.5v-1273zM673 1020.5q-3 21.5 21 26.5q16 2 51 11t80 24.5t94.5 38t94.5 53.5q20 14 30.5 4.5t10.5 -27.5v-866q0 -72 4 -110t20.5 -56.5t50 -22.5t93.5 -4q2 0 13 -3t11 -19t-9 -20.5t-15 -4.5h-465q-10 0 -18.5 4t-8.5 21q0 16 11.5 19 t15.5 3q57 0 90 4t50 22.5t21.5 56.5t4.5 110v602q0 41 -9.5 63.5t-26 33.5t-42 13t-58.5 2h-71q-41 0 -44 21.5z" />
<glyph unicode="&#x2122;" d="M22.5 1032q-2.5 8 0 18.5t4.5 22.5t4 19l47 229q2 6 4 16.5t12 10.5t13.5 -7.5t7.5 -15.5q8 -18 17 -27.5t24.5 -13.5t40 -5t61.5 -1h342q37 0 61.5 1t40 5t24.5 13.5t17 27.5q4 8 7.5 15.5t13.5 7.5t12 -10.5t4 -16.5l47 -229q2 -6 4.5 -18.5t4.5 -23t0 -18.5t-11 -8 q-12 0 -22 17.5t-15 27.5q-23 45 -39 77t-38.5 52.5t-59.5 28.5t-100 8q-35 0 -50.5 -5t-15.5 -50v-375q0 -49 2 -80t12.5 -47t33 -21.5t63.5 -5.5q4 0 15.5 -3t11.5 -19t-9.5 -20.5t-17.5 -4.5h-334q-8 0 -17 4t-9 21q0 16 11 19t15 3q41 0 63.5 5.5t33 21.5t12.5 47t2 80 v375q0 45 -15.5 50t-50.5 5q-63 0 -100 -8t-59.5 -28.5t-39 -52.5t-38.5 -77q-4 -10 -14.5 -27.5t-22.5 -17.5q-8 0 -10.5 8zM801 629q0 16 11 19t15 3q31 0 52.5 4t35 18.5t19.5 41t6 71.5v342q0 35 -2 56.5t-9 34t-23.5 16.5t-45.5 4q-4 0 -15 1t-11 17t9 18.5t17 2.5h156 q23 0 37 -15.5t28 -37.5l271 -443l278 443q14 23 28.5 38t37.5 15h166q8 0 17 -2t9 -19q0 -16 -11 -17t-15 -1q-41 0 -59.5 -8t-24.5 -25.5t-5 -46.5t1 -72v-305q0 -43 3 -68.5t13 -38.5t29.5 -18.5t52.5 -5.5q4 0 15 -3t11 -19t-9 -20.5t-17 -4.5h-309q-8 0 -17.5 4 t-9.5 21q0 16 11.5 19t15.5 3q33 0 52 5.5t29.5 18.5t13.5 38.5t3 68.5v410l-328 -516q-12 -20 -21 -20.5t-24 22.5l-303 489v-381q0 -45 6 -71.5t19.5 -41t35 -18.5t52.5 -4q4 0 15 -3t11 -19t-9 -20.5t-17 -4.5h-271q-8 0 -17 4t-9 21z" />
<glyph unicode="&#x25fc;" horiz-adv-x="911" d="M0 0v911h911v-911h-911z" />
</font>
</defs>
</svg>
